<?xml version="1.0" standalone="no"?>
<!DOCTYPE svg PUBLIC "-//W3C//DTD SVG 20010904//EN"
 "http://www.w3.org/TR/2001/REC-SVG-20010904/DTD/svg10.dtd">
<svg version="1.0" xmlns="http://www.w3.org/2000/svg"
 width="1200.000000pt" height="750.000000pt" viewBox="0 0 1200.000000 750.000000"
 preserveAspectRatio="xMidYMid meet">

<g transform="translate(0.000000,750.000000) scale(0.100000,-0.100000)"
fill="#000000" stroke="none">
<path d="M8113 7483 c-33 -4 -33 -4 -13 -25 11 -12 17 -25 14 -30 -3 -5 3 -21
13 -36 10 -15 27 -49 39 -75 12 -27 31 -54 45 -61 13 -7 23 -20 23 -30 -1 -9
11 -31 26 -48 16 -17 26 -36 23 -43 -2 -7 5 -16 16 -20 12 -4 18 -12 14 -21
-3 -8 2 -23 11 -32 9 -9 26 -29 37 -44 17 -24 28 -28 70 -28 46 0 49 -1 49
-27 0 -24 1 -25 18 -11 11 10 24 13 37 8 12 -4 31 -2 47 6 15 8 36 15 47 17
23 4 41 17 23 17 -7 0 -12 5 -12 10 0 6 9 10 21 10 11 0 29 10 40 23 l18 22 1
-22 c0 -35 16 -27 34 17 14 35 20 40 47 40 22 0 32 5 36 20 3 11 9 20 14 20 5
0 9 6 9 14 0 8 9 17 19 21 10 3 22 13 25 23 22 60 25 77 16 88 -7 8 0 20 25
41 43 37 49 83 13 101 -13 6 -17 11 -10 11 6 1 12 8 12 16 0 8 6 16 13 16 6 1
-10 5 -38 10 -49 7 -759 9 -822 2z"/>
<path d="M9268 6696 c-26 -7 -53 -17 -60 -23 -7 -6 -37 -13 -65 -17 -44 -6
-53 -4 -53 9 0 8 -4 15 -8 15 -15 0 -107 -33 -116 -41 -6 -5 -20 -9 -33 -9
-55 0 -345 -112 -388 -150 -11 -10 -31 -21 -45 -25 -37 -11 -97 -58 -93 -72 3
-7 -7 -17 -21 -22 -25 -10 -52 -48 -42 -59 4 -3 12 2 19 10 11 16 99 68 112
68 4 0 5 -7 1 -15 -3 -10 1 -15 11 -15 9 0 13 -3 9 -7 -7 -8 -11 -9 -37 -12
-5 0 -7 -6 -4 -11 3 -6 -8 -18 -24 -28 -17 -9 -29 -23 -26 -29 2 -7 0 -13 -6
-13 -6 0 -9 -7 -6 -14 4 -10 1 -13 -8 -10 -10 4 -13 0 -10 -15 2 -12 -1 -20
-8 -18 -6 1 -13 -8 -15 -20 -2 -13 -9 -23 -15 -24 -7 0 -2 -4 11 -10 26 -10
67 8 192 85 41 25 79 46 85 46 7 0 20 9 30 20 10 11 23 20 29 20 7 0 30 9 51
20 22 11 51 22 64 25 13 2 31 11 40 19 24 21 179 59 217 52 38 -8 67 2 60 20
-3 9 0 11 11 7 10 -4 14 -2 10 4 -6 9 8 15 73 29 8 1 20 11 27 20 10 13 25 17
67 15 45 -2 55 1 58 16 2 13 8 8 21 -19 10 -20 22 -40 28 -43 6 -4 1 -23 -14
-48 -14 -23 -28 -57 -32 -75 -4 -18 -9 -31 -13 -28 -3 3 -11 1 -18 -5 -11 -9
-16 -5 -25 17 -6 16 -13 23 -16 17 -3 -8 -11 -10 -21 -5 -22 11 -83 8 -80 -4
3 -12 60 -32 76 -26 9 3 12 -4 9 -20 -2 -12 -2 -17 0 -10 13 38 39 -17 49
-104 7 -59 -10 -124 -32 -124 -9 0 -13 -4 -10 -9 5 -7 24 -8 59 -2 5 0 6 5 2
11 -11 18 17 47 41 42 13 -2 24 -8 24 -12 0 -14 -35 -51 -60 -63 -30 -15 -33
-41 -5 -43 11 -1 24 -2 29 -3 5 -1 3 -7 -3 -15 -6 -7 -8 -22 -5 -32 4 -11 4
-16 -1 -12 -4 4 -13 3 -20 -2 -6 -5 -26 -10 -43 -12 -18 -1 -32 -7 -32 -14 0
-6 -7 -17 -15 -24 -22 -18 -18 -38 8 -42 17 -2 22 -10 24 -33 1 -18 -1 -21 -3
-9 -6 26 -31 34 -64 21 l-25 -9 29 -13 29 -12 -34 -7 c-19 -4 -42 -7 -51 -7
-10 0 -31 -18 -49 -40 -17 -21 -41 -42 -54 -45 -13 -3 -26 -12 -29 -20 -3 -8
-17 -14 -31 -14 -16 0 -25 -6 -25 -16 0 -25 -26 -44 -62 -45 -18 0 -27 -3 -20
-6 28 -11 -5 -53 -44 -53 -13 0 -24 -5 -24 -11 0 -6 -9 -9 -20 -6 -11 3 -18 1
-15 -3 7 -11 -34 -34 -43 -25 -18 18 -6 59 28 94 39 40 56 71 39 71 -20 0 -84
-39 -97 -59 -8 -15 -22 -21 -45 -21 -24 0 -41 -9 -62 -30 -16 -16 -38 -30 -50
-30 -11 0 -26 -5 -32 -11 -13 -13 -53 9 -53 28 0 15 -26 17 -35 3 -3 -5 -15
-10 -26 -10 -10 0 -19 5 -19 10 0 6 6 10 13 10 7 0 19 15 25 34 9 23 22 38 42
45 20 7 30 17 30 30 0 12 7 21 15 21 8 0 15 7 15 14 0 8 12 21 27 28 17 8 30
25 35 46 6 21 21 40 44 55 22 14 37 33 41 51 4 19 16 32 38 42 37 15 59 39 50
54 -11 18 -28 11 -72 -35 -23 -25 -47 -45 -52 -45 -5 0 -11 -10 -13 -22 -2
-15 -11 -24 -25 -26 -13 -2 -23 -9 -23 -16 0 -7 -26 -28 -57 -47 -32 -19 -62
-43 -68 -54 -15 -31 -110 -115 -129 -115 -11 0 -16 -9 -16 -29 0 -16 -6 -31
-15 -35 -8 -3 -15 -12 -15 -19 0 -8 -18 -27 -40 -42 -22 -15 -40 -32 -40 -36
0 -5 -9 -9 -19 -9 -12 0 -23 -11 -29 -28 -5 -16 -39 -59 -75 -96 -36 -37 -63
-74 -61 -81 3 -7 -4 -16 -15 -20 -17 -5 -19 -10 -11 -25 14 -25 13 -40 -3 -40
-7 0 -21 -9 -30 -21 -14 -15 -25 -19 -46 -14 -26 6 -27 4 -23 -25 2 -18 0 -30
-7 -30 -6 0 -11 5 -11 10 0 6 -4 10 -10 10 -5 0 -10 -9 -10 -20 0 -11 6 -20
13 -20 8 0 7 -4 -3 -10 -26 -17 -30 -11 -30 40 0 28 4 50 9 50 5 0 11 14 15
32 6 29 7 30 20 13 12 -17 13 -17 19 6 4 13 2 26 -3 27 -6 2 -10 21 -10 42 0
28 5 40 18 43 16 4 16 5 0 6 -22 1 -25 41 -3 41 18 0 20 16 3 23 -8 3 -5 6 6
6 11 1 16 6 13 15 -3 7 1 23 8 34 8 11 22 41 31 68 9 27 21 52 28 56 6 4 12
22 13 40 4 61 11 99 21 111 6 7 13 30 17 52 4 22 14 48 22 57 9 9 16 30 17 46
1 16 6 35 12 43 6 8 11 28 12 44 1 17 10 36 20 43 49 36 62 54 62 81 0 25 6
31 37 42 30 9 34 14 22 23 -8 6 -14 21 -13 34 1 14 -4 22 -15 22 -14 1 -14 2
2 14 9 7 17 23 17 35 0 14 9 25 25 31 24 9 36 40 15 40 -10 0 -91 -72 -144
-128 -90 -97 -126 -132 -132 -132 -11 0 -58 -56 -77 -91 -20 -38 -72 -99 -85
-99 -10 0 -42 -65 -42 -85 0 -7 -3 -15 -7 -17 -5 -1 -21 -29 -36 -60 -15 -32
-31 -58 -36 -58 -10 0 -111 -98 -111 -107 0 -4 -19 -32 -43 -62 -52 -69 -90
-137 -84 -154 5 -15 -20 -67 -33 -67 -5 0 -34 -33 -65 -72 -32 -40 -66 -76
-76 -80 -10 -4 -19 -12 -19 -18 0 -5 -13 -10 -29 -10 -25 0 -31 -5 -36 -30 -4
-16 -13 -30 -21 -30 -16 0 -19 -27 -4 -32 14 -4 -48 -68 -66 -68 -8 0 -14 -7
-14 -15 0 -8 -4 -15 -10 -15 -5 0 -10 -9 -10 -19 0 -11 -13 -29 -28 -39 -22
-16 -32 -18 -47 -9 -31 17 -82 18 -89 2 -3 -8 -11 -15 -17 -15 -7 0 -18 -8
-25 -17 -9 -13 -16 -15 -24 -7 -15 15 -2 44 18 37 14 -4 14 -3 3 5 -19 14 -64
-18 -49 -35 12 -15 -25 -73 -63 -99 -15 -10 -27 -23 -26 -28 1 -6 -8 -12 -21
-14 -12 -2 -28 -12 -35 -23 -6 -10 -17 -19 -24 -19 -6 0 -13 -6 -16 -12 -2 -7
-8 -10 -12 -5 -5 4 6 22 23 40 18 18 32 38 32 45 0 7 4 12 10 12 5 0 12 11 16
25 3 14 10 25 15 25 5 0 9 6 9 14 0 8 4 16 8 18 12 4 24 68 13 68 -10 0 -58
-60 -81 -102 -21 -36 -93 -127 -102 -127 -16 -2 -7 22 24 65 49 69 24 64 -46
-9 -35 -37 -66 -67 -70 -67 -12 0 -6 38 7 43 6 2 9 8 5 12 -10 10 -48 -24 -48
-42 0 -14 -24 -44 -35 -43 -27 1 -36 -2 -32 -12 2 -7 -14 -26 -35 -42 -23 -17
-37 -34 -34 -42 3 -8 1 -14 -3 -14 -5 0 -11 6 -14 13 -3 9 -9 7 -24 -5 -25
-23 -33 -23 -34 0 0 14 -2 14 -7 2 -10 -23 -34 -53 -56 -70 -18 -13 -19 -13
-14 0 23 58 23 56 5 41 -9 -7 -17 -22 -17 -33 0 -26 -51 -79 -78 -81 -13 -1
-26 -12 -33 -29 -6 -15 -16 -28 -21 -28 -6 0 -5 7 2 15 20 24 -3 17 -32 -10
-15 -14 -34 -25 -43 -25 -8 0 -15 -7 -15 -15 0 -8 -4 -15 -10 -15 -5 0 -16
-13 -25 -30 -10 -19 -20 -27 -30 -24 -10 4 -18 -3 -25 -20 -5 -14 -14 -26 -20
-26 -6 0 -8 -5 -5 -11 4 -6 -2 -19 -14 -30 -12 -11 -21 -24 -21 -30 0 -6 -9
-7 -22 -4 -16 6 -20 4 -15 -7 3 -8 1 -21 -4 -29 -7 -11 -9 -11 -9 -1 0 28 -20
-1 -21 -31 -1 -29 -2 -28 -12 13 l-12 45 -3 -42 c-2 -24 -8 -43 -14 -43 -6 0
-8 -13 -6 -30 3 -17 2 -30 -2 -30 -15 0 -30 -51 -21 -69 7 -11 5 -27 -6 -49
-14 -29 -14 -34 1 -57 20 -31 21 -65 1 -65 -8 0 -15 -4 -15 -10 0 -5 6 -10 14
-10 9 0 15 -14 18 -41 3 -36 2 -40 -17 -35 -19 5 -20 1 -17 -35 2 -22 -1 -60
-8 -84 -15 -54 -6 -74 21 -44 19 22 19 22 19 1 0 -11 -4 -24 -10 -27 -5 -3
-10 -15 -10 -26 0 -24 -16 -25 -29 -1 -9 15 -10 15 -11 -6 0 -12 -11 -40 -25
-62 -14 -22 -25 -48 -25 -58 0 -9 -7 -28 -16 -40 -8 -12 -14 -30 -12 -39 3
-15 4 -15 20 0 26 26 39 22 28 -9 -9 -24 -8 -25 17 -22 20 2 28 -2 28 -12 0
-11 -9 -14 -30 -12 -19 2 -25 0 -17 -6 17 -11 29 -82 13 -82 -6 0 -11 -5 -11
-11 0 -8 12 -10 36 -6 31 5 34 4 29 -13 -5 -14 1 -20 25 -25 30 -7 31 -8 14
-26 -15 -17 -13 -33 4 -34 4 -1 18 -5 31 -9 14 -5 27 -4 34 3 13 13 27 15 27
4 0 -13 -52 -33 -84 -33 l-31 0 33 -17 c24 -12 31 -20 27 -34 -5 -15 -1 -19
19 -19 27 0 44 -16 24 -23 -7 -2 7 -8 31 -13 46 -10 69 -34 33 -34 -19 0 -20
-2 -6 -29 14 -27 43 -43 124 -68 12 -3 12 -6 1 -12 -11 -7 -9 -11 7 -20 11 -6
28 -11 36 -11 9 0 16 -4 16 -8 0 -5 18 -14 40 -21 22 -6 40 -16 40 -22 0 -5
12 -14 26 -19 15 -6 35 -22 46 -35 11 -14 26 -25 34 -25 16 0 26 -7 75 -52 29
-28 38 -48 19 -48 -5 0 -10 -4 -10 -10 0 -5 11 -10 23 -10 13 0 32 -9 42 -20
10 -11 24 -20 30 -20 14 0 71 -71 67 -82 -1 -5 3 -8 8 -8 6 0 10 -5 10 -11 0
-7 -12 -9 -30 -7 -24 4 -30 1 -25 -9 3 -8 5 -16 5 -17 0 -2 11 -1 25 2 38 7
70 -5 103 -39 31 -31 100 -48 113 -27 4 6 16 4 32 -7 15 -9 31 -14 37 -10 13
8 13 42 0 50 -13 8 -13 25 0 25 6 0 10 -6 10 -14 0 -8 14 -28 31 -45 17 -17
28 -35 24 -41 -3 -6 0 -7 9 -4 9 3 16 16 16 28 1 19 1 20 11 3 6 -10 8 -25 5
-33 -3 -8 -2 -15 2 -15 4 -1 18 -3 32 -5 72 -12 75 -11 80 29 l5 39 22 -26
c14 -15 29 -23 38 -20 8 4 22 1 30 -6 9 -7 15 -8 15 -2 0 5 8 8 19 5 10 -2 26
3 35 13 14 14 19 15 26 4 13 -20 40 -3 40 25 0 31 18 33 30 3 5 -13 9 -16 9
-8 1 11 4 11 13 2 9 -9 16 -8 30 5 10 9 18 22 18 29 0 8 14 20 30 29 17 9 30
20 30 27 0 7 14 9 39 5 29 -4 41 -1 45 10 3 8 4 19 1 23 -3 5 4 14 15 20 11 6
20 17 20 25 0 8 12 15 28 17 22 2 28 8 30 34 2 22 9 34 22 37 11 3 24 16 29
30 6 14 23 31 38 39 19 9 29 22 31 40 2 15 13 34 24 42 11 8 17 19 14 24 -3 6
-3 12 1 14 5 1 23 24 41 51 22 31 31 54 27 67 -4 13 0 23 14 32 12 7 21 19 21
26 0 21 47 37 65 22 8 -7 19 -10 23 -6 4 4 -4 16 -18 26 -14 11 -21 20 -16 20
5 0 3 6 -3 14 -9 11 -9 19 1 37 10 17 10 23 1 26 -22 8 -14 22 20 37 27 11 36
22 46 57 6 24 11 55 9 69 -2 20 2 25 27 30 25 4 30 10 32 35 13 162 15 175 35
175 23 0 32 22 24 55 -5 21 -12 25 -46 25 -29 0 -40 4 -40 15 0 8 -6 15 -12
16 -7 0 2 7 20 15 17 8 32 17 33 22 0 4 2 16 5 27 2 11 4 34 5 50 2 17 12 44
25 61 12 16 23 39 25 50 4 24 -9 64 -21 64 -4 0 -4 17 1 38 9 41 3 140 -10
157 -5 5 -11 34 -14 64 -4 30 -12 58 -19 62 -7 5 -13 30 -14 58 -1 35 -8 56
-23 72 l-20 22 37 37 c57 58 75 84 60 89 -7 2 -18 11 -24 20 -9 12 -5 20 25
41 41 31 68 61 61 69 -3 3 10 16 29 28 19 13 41 33 49 45 15 21 16 21 22 2 6
-16 8 -14 14 11 8 34 58 65 107 65 16 0 39 9 51 20 11 10 34 22 49 25 16 4 29
10 29 14 0 5 20 16 45 27 25 10 45 21 45 25 0 3 26 20 58 36 82 43 152 96 247
188 112 108 180 195 281 362 10 17 33 51 50 75 17 23 51 79 74 123 24 44 51
90 61 103 10 13 30 55 45 95 15 40 44 105 66 145 21 39 38 76 38 81 0 4 19 48
42 97 23 49 42 96 41 104 -3 18 33 133 52 171 8 15 23 57 34 95 11 38 28 92
38 119 27 73 15 174 -27 222 -17 18 -30 38 -30 43 0 6 -9 10 -21 10 -12 0 -23
8 -26 18 -9 38 -169 62 -255 38z m149 -368 c-3 -8 -6 -5 -6 6 -1 11 2 17 5 13
3 -3 4 -12 1 -19z m3 -43 c6 -8 9 -19 5 -25 -3 -5 -3 -15 1 -21 14 -23 14 -90
1 -104 -14 -14 -67 -16 -67 -2 0 4 4 7 10 7 5 0 9 19 9 43 0 35 3 69 10 110 2
12 18 8 31 -8z m-767 -755 c-3 -11 -7 -20 -9 -20 -2 0 -4 9 -4 20 0 11 4 20 9
20 5 0 7 -9 4 -20z m-13 -120 c0 -5 -2 -10 -4 -10 -3 0 -8 5 -11 10 -3 6 -1
10 4 10 6 0 11 -4 11 -10z m-2007 -876 c5 -5 -31 -40 -78 -74 -15 -11 -13 -7
5 14 14 16 32 37 40 47 17 19 24 22 33 13z m1447 -124 c0 -5 -5 -10 -11 -10
-5 0 -7 5 -4 10 3 6 8 10 11 10 2 0 4 -4 4 -10z m-26 -41 c-3 -5 -10 -7 -15
-3 -5 3 -7 10 -3 15 3 5 10 7 15 3 5 -3 7 -10 3 -15z m-1683 -157 c-7 -2 -18
1 -23 6 -8 8 -4 9 13 5 13 -4 18 -8 10 -11z m-46 -29 c-9 -8 -19 -13 -22 -9
-9 8 18 37 28 30 5 -3 2 -12 -6 -21z m502 -157 c-13 -26 -30 -46 -42 -48 -17
-4 -16 -6 8 -16 26 -11 31 -10 49 13 22 28 33 31 41 11 4 -10 1 -13 -9 -9 -7
3 -14 0 -14 -7 0 -7 -12 -24 -27 -37 -21 -20 -23 -27 -12 -34 11 -7 11 -9 -3
-9 -10 0 -18 -4 -18 -10 0 -5 -6 -10 -14 -10 -9 0 -13 -10 -12 -26 1 -22 4
-25 29 -20 17 4 26 2 22 -4 -3 -6 -22 -10 -41 -10 -20 0 -44 -5 -55 -10 -26
-14 -102 8 -95 27 3 8 -5 15 -22 19 -46 10 -48 12 -14 13 20 1 31 5 27 11 -3
6 -16 8 -29 4 -28 -7 -77 12 -74 28 2 7 -7 14 -19 16 -13 2 -23 8 -23 13 0 5
-11 9 -24 9 -13 0 -27 8 -30 17 -5 12 -9 14 -18 5 -14 -14 -48 -16 -48 -3 0 5
15 12 33 15 19 3 42 13 53 21 18 14 17 14 -13 15 -17 0 -33 -4 -35 -8 -1 -5
-16 -12 -33 -16 l-30 -7 25 21 c14 11 19 20 12 20 -7 0 -10 5 -7 11 4 6 14 8
22 4 21 -7 55 4 48 16 -4 5 11 8 32 8 23 -1 29 -3 16 -6 -26 -5 -28 -9 -11
-27 10 -10 17 -10 40 2 16 7 36 11 44 8 8 -3 17 1 20 9 4 8 12 15 19 15 23 0
28 -20 9 -41 -15 -17 -15 -19 -1 -19 9 0 19 5 23 11 4 7 9 7 13 2 9 -14 118
-25 126 -13 4 6 -6 10 -22 10 l-28 1 25 14 c29 17 54 19 45 5 -3 -5 -1 -10 4
-10 6 0 11 9 11 19 0 17 11 25 42 30 4 0 -3 -19 -15 -43z m-740 -160 c-16 -18
-31 -8 -16 10 6 7 15 11 20 8 5 -3 3 -11 -4 -18z m-37 -25 c0 -26 -16 -35 -37
-21 -16 10 -15 10 4 5 18 -5 20 -2 16 15 -3 11 0 20 6 20 6 0 11 -9 11 -19z
m835 -8 c-9 -8 -18 -13 -21 -10 -8 8 19 36 29 30 4 -2 0 -11 -8 -20z m-894
-61 c-6 -2 -11 -11 -11 -20 0 -10 -9 -23 -21 -30 -13 -9 -18 -19 -14 -32 7
-22 -14 -38 -25 -20 -5 8 -10 1 -15 -21 -9 -44 -32 -69 -62 -69 -22 0 -23 4
-23 64 0 61 12 92 23 64 3 -7 6 -3 6 9 1 12 6 25 13 29 6 4 8 3 4 -4 -3 -6 -2
-13 3 -16 5 -3 11 3 14 13 2 11 28 30 58 45 48 23 54 24 58 9 2 -10 -2 -19 -8
-21z m863 -17 c-4 -8 -12 -15 -19 -15 -6 0 -20 -9 -30 -20 -19 -21 -116 -73
-123 -66 -2 3 23 22 57 43 37 23 61 45 61 55 0 13 8 18 30 18 22 0 28 -4 24
-15z m-1132 -47 c-9 -9 -12 -7 -12 12 0 19 3 21 12 12 9 -9 9 -15 0 -24z m975
6 c-3 -3 -12 -4 -19 -1 -8 3 -5 6 6 6 11 1 17 -2 13 -5z m126 -52 c-13 -2 -23
-7 -23 -11 0 -4 -13 -8 -30 -9 -16 0 -30 3 -30 8 0 13 52 27 80 21 24 -5 24
-6 3 -9z m12 -52 c-3 -5 -15 -10 -26 -10 -11 0 -20 -7 -21 -17 0 -10 -2 -24
-2 -31 -1 -18 -73 -51 -110 -52 l-29 0 23 25 c18 20 21 28 12 37 -16 16 -15
28 2 28 8 0 16 7 20 15 4 11 22 15 71 15 42 0 64 -4 60 -10z m-975 -66 c0 -14
-4 -23 -10 -19 -5 3 -10 15 -10 26 0 10 5 19 10 19 6 0 10 -12 10 -26z m940
-54 c0 -5 -2 -10 -4 -10 -3 0 -8 5 -11 10 -3 6 -1 10 4 10 6 0 11 -4 11 -10z
m-27 -47 c-7 -2 -19 -2 -25 0 -7 3 -2 5 12 5 14 0 19 -2 13 -5z m94 1 c-3 -3
-12 -4 -19 -1 -8 3 -5 6 6 6 11 1 17 -2 13 -5z m-219 -38 c-7 -8 -15 -12 -17
-11 -5 6 10 25 20 25 5 0 4 -6 -3 -14z m126 5 c7 -11 -42 -21 -63 -13 -14 6 3
13 51 21 4 0 9 -3 12 -8z m-66 -68 c-10 -2 -26 -2 -35 0 -10 3 -2 5 17 5 19 0
27 -2 18 -5z m-13 -73 c-3 -5 -14 -10 -23 -10 -15 0 -15 2 -2 10 20 13 33 13
25 0z m-972 -132 c-13 -12 -25 -19 -29 -15 -10 10 16 37 34 37 13 0 12 -4 -5
-22z m-113 -8 c-20 -13 -33 -13 -25 0 3 6 14 10 23 10 15 0 15 -2 2 -10z m68
-36 c-18 -18 -84 -32 -74 -15 5 7 14 10 21 7 7 -2 21 4 30 14 10 11 22 17 27
14 6 -4 4 -12 -4 -20z m5 -96 c-3 -16 -11 -28 -17 -28 -24 0 -26 14 -4 37 26
27 28 26 21 -9z m15 -55 c-10 -2 -18 -9 -18 -15 0 -6 -3 -9 -6 -5 -10 10 6 27
24 26 15 -1 15 -2 0 -6z m1388 -929 c-3 -9 -6 -20 -6 -25 0 -5 -4 -9 -10 -9
-5 0 -10 11 -10 25 0 16 6 25 16 25 11 0 14 -5 10 -16z"/>
<path d="M6520 3981 c0 -5 9 -7 20 -4 11 3 20 7 20 9 0 2 -9 4 -20 4 -11 0
-20 -4 -20 -9z"/>
<path d="M6556 3933 c-6 -14 -5 -15 5 -6 7 7 10 15 7 18 -3 3 -9 -2 -12 -12z"/>
<path d="M6720 3910 c0 -5 7 -10 16 -10 8 0 12 5 9 10 -3 6 -10 10 -16 10 -5
0 -9 -4 -9 -10z"/>
<path d="M6608 3893 c6 -2 18 -2 25 0 6 3 1 5 -13 5 -14 0 -19 -2 -12 -5z"/>
<path d="M5840 3625 c0 -19 5 -35 10 -35 6 0 10 16 10 35 0 19 -4 35 -10 35
-5 0 -10 -16 -10 -35z"/>
<path d="M9141 6691 c-7 -5 -9 -11 -4 -14 6 -4 19 0 29 8 15 11 16 14 4 15 -8
0 -21 -4 -29 -9z"/>
<path d="M9067 6354 c-4 -4 -4 -10 -1 -15 6 -10 34 0 34 12 0 10 -24 12 -33 3z"/>
<path d="M7725 6260 c-3 -5 -15 -10 -26 -10 -10 0 -19 -5 -19 -11 0 -5 -5 -7
-10 -4 -12 7 -158 -64 -201 -98 -15 -12 -28 -29 -28 -39 -1 -9 -6 -18 -12 -20
-13 -4 -40 -78 -33 -90 3 -4 0 -8 -5 -8 -6 0 -11 -9 -11 -20 0 -11 -11 -29
-24 -41 -13 -11 -31 -37 -40 -58 -16 -34 -32 -46 -89 -65 -10 -3 -15 -10 -12
-16 3 -6 -1 -13 -9 -16 -9 -3 -14 -10 -11 -14 3 -5 1 -11 -5 -15 -5 -3 -10
-18 -10 -33 0 -51 -20 -102 -39 -102 -22 0 -31 -19 -31 -64 l0 -33 57 8 c47 6
61 5 75 -8 22 -20 23 -46 3 -63 -19 -16 -19 -35 1 -54 17 -17 54 -22 54 -7 0
6 14 25 30 43 17 18 30 41 30 51 0 10 4 15 10 12 18 -11 22 42 6 73 -17 33
-21 53 -8 50 18 -4 72 38 72 57 0 11 8 25 18 31 9 6 18 24 20 39 1 14 11 38
22 52 11 14 20 32 20 39 0 8 5 14 11 14 6 0 9 7 6 15 -6 15 32 47 71 59 14 5
21 14 20 24 -2 12 5 18 22 20 30 5 52 21 44 33 -3 5 11 16 30 26 20 9 36 22
36 27 0 12 56 41 80 41 8 0 19 14 24 30 13 40 16 42 25 26 7 -10 11 -8 16 10
5 14 3 25 -4 27 -13 4 -15 42 -2 42 5 0 12 -8 14 -17 3 -10 5 -4 6 13 1 27 -3
32 -21 32 -13 1 -44 5 -70 10 -33 6 -49 5 -53 -2 -3 -7 -7 -7 -11 2 -7 14 -30
16 -39 2z m-355 -745 c0 -8 -4 -15 -10 -15 -5 0 -7 7 -4 15 4 8 8 15 10 15 2
0 4 -7 4 -15z"/>
<path d="M8986 6225 c-9 -26 -7 -32 5 -12 6 10 9 21 6 23 -2 3 -7 -2 -11 -11z"/>
<path d="M8876 6084 c-9 -24 -2 -26 12 -4 7 11 8 20 3 20 -5 0 -12 -7 -15 -16z"/>
<path d="M8780 5985 c-23 -12 -23 -14 -7 -21 20 -7 42 8 36 24 -3 7 -13 6 -29
-3z"/>
<path d="M9300 5954 c0 -8 5 -12 10 -9 6 3 10 10 10 16 0 5 -4 9 -10 9 -5 0
-10 -7 -10 -16z"/>
<path d="M7106 5655 c-3 -8 -3 -22 0 -30 5 -12 10 -10 25 9 10 13 19 27 19 30
0 13 -38 5 -44 -9z"/>
<path d="M8495 5539 c-4 -6 -4 -13 -1 -16 8 -8 36 5 36 17 0 13 -27 13 -35 -1z"/>
<path d="M7132 4909 c2 -6 8 -10 13 -10 5 0 11 4 13 10 2 6 -4 11 -13 11 -9 0
-15 -5 -13 -11z"/>
<path d="M6797 4823 c-4 -3 -7 -11 -7 -17 0 -6 5 -5 12 2 6 6 9 14 7 17 -3 3
-9 2 -12 -2z"/>
<path d="M6815 4795 c-15 -19 -25 -41 -23 -50 2 -12 13 -3 36 29 35 50 37 56
23 56 -6 0 -22 -16 -36 -35z"/>
<path d="M6910 4815 c-10 -12 -10 -15 4 -15 9 0 16 7 16 15 0 8 -2 15 -4 15
-2 0 -9 -7 -16 -15z"/>
<path d="M6617 4750 c-60 -67 -66 -98 -9 -45 15 14 36 28 47 31 11 3 29 17 39
31 19 25 19 26 1 19 -10 -4 -21 -2 -25 4 -4 7 -25 -9 -53 -40z m43 15 c-7 -9
-15 -13 -17 -11 -7 7 7 26 19 26 6 0 6 -6 -2 -15z"/>
<path d="M6556 4745 c-9 -26 -7 -32 5 -12 6 10 9 21 6 23 -2 3 -7 -2 -11 -11z"/>
<path d="M9990 4687 c0 -13 -5 -17 -18 -13 -23 8 -55 -25 -46 -47 3 -10 -2
-20 -15 -26 -16 -9 -20 -21 -20 -54 1 -36 -5 -48 -40 -84 -22 -24 -45 -43 -51
-43 -5 0 -10 -8 -10 -18 0 -14 8 -19 28 -21 15 0 44 -2 65 -4 20 -1 37 1 37 5
0 5 7 8 15 8 19 0 19 -29 0 -57 -8 -12 -12 -30 -9 -40 4 -13 3 -14 -3 -5 -12
16 -33 -26 -33 -66 0 -21 -2 -24 -10 -12 -8 13 -10 12 -10 -4 0 -10 11 -27 24
-37 16 -13 22 -26 19 -39 -4 -14 0 -20 11 -20 9 0 16 -8 16 -20 0 -11 4 -20
10 -20 5 0 20 -11 34 -25 14 -14 30 -25 35 -25 5 0 22 -22 37 -50 15 -27 31
-50 36 -50 4 0 8 -7 8 -16 0 -10 6 -13 18 -10 13 4 23 -1 32 -19 7 -14 19 -25
25 -25 22 0 56 -37 49 -53 -7 -20 13 -86 35 -111 9 -10 26 -22 39 -27 35 -13
27 -42 -18 -62 -44 -20 -54 -51 -20 -60 11 -3 20 -12 20 -21 0 -11 9 -16 29
-16 24 0 31 -6 45 -40 9 -22 20 -40 25 -40 4 0 6 -11 3 -25 -2 -14 -8 -25 -13
-25 -5 0 -9 11 -9 25 0 16 -6 25 -16 25 -13 0 -15 -7 -9 -36 4 -26 2 -40 -7
-46 -8 -5 -4 -6 13 -3 24 6 26 4 21 -20 -3 -18 -9 -24 -20 -20 -21 8 -42 -13
-42 -43 0 -37 61 -152 81 -152 9 0 19 -8 23 -17 3 -10 11 -26 18 -36 11 -15
10 -20 -4 -28 -19 -11 -26 -79 -8 -79 6 0 10 -18 10 -39 0 -22 5 -42 13 -44 6
-3 3 -6 -9 -6 -21 -1 -64 -39 -64 -58 0 -6 -9 -13 -20 -16 -25 -6 -26 -37 -1
-63 10 -11 21 -36 25 -55 5 -28 2 -37 -15 -49 -12 -8 -29 -23 -39 -33 -9 -10
-24 -15 -33 -11 -25 9 -39 -30 -35 -100 1 -40 -2 -69 -10 -78 -10 -12 -7 -20
15 -43 26 -26 26 -27 6 -21 -35 11 -83 -22 -83 -56 0 -15 -9 -37 -20 -48 -25
-25 -25 -36 -2 -45 32 -13 -17 -23 -84 -18 -57 5 -62 4 -69 -16 -6 -21 -25
-29 -25 -11 0 6 6 10 13 10 8 0 7 3 -3 10 -9 6 -18 6 -24 0 -6 -6 -18 -10 -27
-10 -9 0 -19 -9 -22 -20 -7 -28 -45 -26 -57 3 -8 21 -9 21 -9 1 -1 -15 -11
-24 -39 -32 -29 -9 -41 -19 -50 -45 -7 -18 -12 -41 -12 -50 0 -11 -8 -17 -22
-17 -17 -1 -28 -11 -40 -38 -11 -22 -14 -38 -8 -40 6 -2 10 -29 10 -60 0 -46
-4 -60 -19 -69 -11 -7 -25 -28 -32 -47 -9 -26 -19 -36 -38 -38 -18 -2 -26 -9
-27 -23 -1 -11 -2 -35 -3 -52 0 -22 -6 -33 -16 -33 -10 0 -16 -16 -21 -50 -4
-28 -10 -50 -15 -50 -5 0 -9 -11 -9 -24 0 -14 -4 -27 -10 -31 -5 -3 -7 -12 -3
-20 3 -9 0 -22 -6 -29 -8 -10 -9 -16 -1 -21 13 -8 -31 -64 -46 -58 -15 5 -28
-14 -15 -21 10 -7 3 -86 -9 -99 -4 -5 -10 3 -14 16 -4 18 -13 25 -31 25 -14 0
-38 5 -55 12 -18 8 -48 10 -74 7 -38 -5 -46 -3 -58 15 l-14 22 -22 -22 c-23
-23 -28 -47 -12 -57 15 -9 12 -45 -4 -45 -9 0 -12 -7 -9 -19 3 -11 11 -17 18
-15 12 5 30 -24 20 -34 -3 -3 -20 -6 -37 -7 -26 -2 -39 5 -60 28 -16 17 -28
37 -28 45 0 27 33 92 47 92 7 0 13 5 13 10 0 6 -5 10 -10 10 -6 0 -10 8 -8 17
3 18 -21 33 -85 53 -32 10 -40 9 -54 -5 -12 -12 -25 -15 -47 -10 -33 8 -89 13
-176 17 -37 2 -54 7 -53 15 2 7 -8 15 -22 19 -39 10 -30 40 18 57 11 4 16 3
12 -3 -3 -6 1 -10 10 -10 10 0 13 5 9 12 -5 8 4 9 33 5 l40 -7 -1 38 c-1 31 2
37 22 40 12 2 22 8 22 13 0 5 7 9 15 9 27 0 5 52 -40 96 -29 28 -54 43 -81 48
-30 5 -36 4 -24 -5 12 -9 11 -10 -5 -4 -34 11 -39 11 -41 -5 0 -8 -2 -20 -2
-26 -1 -7 -17 -15 -36 -18 -19 -4 -48 -14 -66 -22 -28 -15 -33 -15 -49 0 -23
21 -45 21 -37 0 8 -21 -20 -65 -37 -59 -7 3 -18 19 -25 35 -8 17 -21 30 -30
29 -10 0 -12 -3 -5 -5 13 -6 3 -52 -12 -56 -5 -2 -11 9 -13 25 -4 30 -19 36
-24 9 -3 -12 -9 -5 -23 23 -23 46 -49 56 -65 24 -10 -17 -9 -23 1 -30 11 -6
11 -11 1 -21 -9 -9 -12 -9 -12 5 0 9 -4 17 -10 17 -5 0 -10 -8 -10 -17 0 -14
-5 -12 -25 10 -14 15 -34 27 -45 27 -10 0 -20 6 -23 13 -3 7 -9 0 -16 -15 -8
-22 -17 -28 -42 -28 -18 0 -29 3 -26 7 10 9 -23 43 -40 43 -8 0 -26 -9 -40
-20 -14 -11 -34 -20 -45 -20 -11 0 -17 -4 -14 -9 3 -5 -1 -14 -9 -21 -11 -9
-16 -7 -27 9 -7 12 -19 21 -26 21 -7 0 -10 5 -7 11 4 6 -2 19 -13 29 -17 16
-21 17 -26 5 -7 -20 -43 -19 -54 1 -8 15 -11 15 -29 -3 -11 -11 -22 -25 -24
-32 -2 -6 -33 -15 -69 -20 -66 -9 -100 -4 -64 10 12 5 14 8 4 8 -23 1 -70 -45
-70 -68 0 -25 -20 -71 -32 -71 -4 0 -8 9 -8 20 0 12 -9 30 -20 42 -21 23 -24
19 -20 -36 1 -23 -2 -28 -14 -23 -10 4 -20 -1 -26 -13 -8 -15 -8 -20 2 -21 7
0 3 -5 -10 -12 -16 -7 -22 -17 -19 -29 6 -22 -9 -34 -16 -14 -3 8 -14 13 -23
12 -18 -3 -26 -13 -40 -51 -6 -18 -8 -18 -11 -3 -8 34 -36 14 -48 -35 -4 -15
-14 -27 -21 -27 -10 0 -13 -7 -8 -24 5 -19 -3 -33 -40 -70 -43 -44 -78 -58
-92 -35 -3 6 -16 8 -29 5 -18 -5 -25 1 -37 33 -14 35 -19 39 -57 43 -31 3 -46
-1 -57 -14 -9 -9 -23 -14 -31 -11 -8 3 -25 0 -39 -8 -20 -10 -24 -18 -19 -41
7 -29 -3 -36 -22 -17 -8 8 -18 6 -37 -6 -24 -16 -26 -16 -20 -1 4 12 2 15 -9
10 -10 -3 -17 2 -21 14 -4 10 -17 25 -30 32 -14 7 -22 18 -19 26 4 11 -9 13
-66 9 -39 -2 -73 0 -76 6 -11 17 -71 10 -94 -12 l-22 -21 -41 20 c-40 20 -57
20 -91 -4 -11 -7 -14 -14 -8 -18 5 -4 7 -14 4 -23 -5 -14 -1 -15 30 -10 30 5
39 2 47 -13 6 -10 23 -27 39 -36 16 -9 27 -24 26 -33 -1 -9 0 -10 2 -3 6 16
14 15 49 -2 15 -8 32 -12 37 -9 6 4 7 -4 3 -21 -4 -15 -2 -26 4 -26 5 0 10 -4
10 -10 0 -15 121 -130 137 -130 7 0 13 -4 13 -10 0 -5 -7 -10 -15 -10 -8 0
-15 5 -15 10 0 6 -7 10 -15 10 -8 0 -15 -2 -15 -5 0 -10 45 -50 53 -47 10 3
-1 -54 -15 -81 -5 -10 -16 -16 -23 -13 -23 9 -28 -14 -8 -36 18 -20 17 -21
-17 -49 -29 -25 -33 -32 -23 -48 9 -14 8 -21 -4 -33 -12 -13 -13 -19 -1 -39 7
-13 19 -30 27 -39 13 -13 13 -15 -1 -18 -9 -2 -20 -15 -26 -30 -32 -93 -40
-122 -32 -122 6 0 10 -18 10 -40 0 -29 -4 -40 -15 -40 -11 0 -15 -11 -15 -40
0 -43 14 -52 36 -23 12 17 14 17 28 -2 8 -11 11 -22 6 -25 -5 -3 -11 -17 -15
-32 -4 -15 -14 -29 -23 -31 -10 -3 -3 -5 14 -6 25 -1 34 -7 44 -31 l12 -30
2467 4 c1356 2 2509 4 2561 5 52 1 175 -1 273 -4 l177 -6 0 455 c0 250 -3 461
-6 470 -14 35 -40 17 -58 -41 -10 -32 -22 -68 -26 -79 -14 -36 -11 -217 3
-226 9 -6 8 -11 -6 -19 -9 -6 -15 -14 -12 -19 3 -5 -6 -26 -20 -46 -15 -22
-23 -45 -19 -53 15 -40 15 -77 0 -90 -9 -8 -16 -29 -16 -48 0 -58 -23 -89 -85
-112 -31 -12 -62 -21 -69 -21 -8 0 -38 -7 -67 -16 -30 -8 -70 -19 -89 -24 -19
-5 -73 -18 -120 -29 -82 -20 -232 -48 -314 -58 -35 -5 -114 12 -126 28 -3 3
-18 12 -34 20 -39 19 -57 81 -51 175 4 54 1 79 -12 105 -10 20 -17 58 -18 91
0 32 -6 63 -12 70 -7 6 -13 22 -13 34 0 12 -9 43 -20 68 -31 72 -30 168 3 239
14 31 33 60 43 64 9 3 28 17 42 30 14 13 37 26 51 30 39 9 78 30 101 55 19 20
21 34 19 123 -2 166 -7 193 -44 220 -17 14 -40 26 -51 28 -36 7 -91 35 -114
58 -43 45 -59 102 -64 221 -4 98 -2 114 15 137 10 14 21 40 23 56 2 17 6 37 9
45 6 17 20 127 19 150 -1 8 -3 44 -6 81 -5 51 -2 77 14 120 12 29 23 62 27 72
3 9 9 17 13 17 17 0 24 41 31 185 4 83 13 211 19 285 6 74 13 205 15 290 4
155 4 155 -24 200 -36 59 -44 89 -46 185 -1 67 -6 91 -33 148 -17 37 -29 67
-26 67 3 0 -9 19 -28 42 -18 23 -32 45 -32 48 2 10 -30 70 -38 70 -4 0 -8 9
-8 20 0 11 -9 28 -20 37 -11 10 -20 28 -20 41 0 29 -10 48 -70 132 -26 37 -49
82 -53 103 -8 50 -71 116 -151 157 -33 17 -78 45 -98 61 -20 16 -43 29 -50 29
-8 0 -21 8 -30 18 -26 27 -46 42 -57 42 -5 0 -15 15 -22 33 -6 18 -23 41 -38
50 -14 9 -37 25 -51 36 -14 12 -36 22 -50 23 -14 2 -28 8 -32 13 -4 6 -8 2 -8
-8z m-2320 -3111 c0 -3 -4 -8 -10 -11 -5 -3 -10 -1 -10 4 0 6 5 11 10 11 6 0
10 -2 10 -4z m240 -6 c0 -5 -7 -10 -16 -10 -8 0 -12 5 -9 10 3 6 10 10 16 10
5 0 9 -4 9 -10z m-1620 -400 c0 -5 -7 -10 -15 -10 -8 0 -15 5 -15 10 0 6 7 10
15 10 8 0 15 -4 15 -10z m505 -392 c6 -7 -6 -8 -35 -3 -65 10 -86 26 -25 18
28 -3 55 -10 60 -15z m-291 -395 c-5 -5 -12 -12 -16 -18 -4 -6 -8 -2 -8 8 0 9
7 17 17 17 9 0 12 -3 7 -7z m56 -198 c0 -8 -6 -15 -14 -15 -20 0 -29 17 -14
23 22 9 28 7 28 -8z"/>
<path d="M6531 4643 c-13 -13 -19 -23 -12 -23 15 0 44 27 39 38 -2 4 -14 -3
-27 -15z"/>
<path d="M8248 4443 c6 -2 18 -2 25 0 6 3 1 5 -13 5 -14 0 -19 -2 -12 -5z"/>
<path d="M6095 4310 c-3 -5 -1 -10 4 -10 6 0 11 5 11 10 0 6 -2 10 -4 10 -3 0
-8 -4 -11 -10z"/>
<path d="M1478 3973 c6 -2 18 -2 25 0 6 3 1 5 -13 5 -14 0 -19 -2 -12 -5z"/>
<path d="M1475 3930 c-3 -5 3 -10 15 -10 12 0 18 5 15 10 -3 6 -10 10 -15 10
-5 0 -12 -4 -15 -10z"/>
<path d="M1840 3884 c0 -14 3 -14 15 -4 8 7 15 14 15 16 0 2 -7 4 -15 4 -8 0
-15 -7 -15 -16z"/>
<path d="M1360 3804 c0 -15 -7 -36 -17 -46 -15 -17 -15 -18 4 -18 17 0 22 8
25 41 2 22 0 43 -4 45 -4 3 -8 -7 -8 -22z"/>
<path d="M2080 3789 c0 -11 4 -18 10 -14 5 3 7 12 3 20 -7 21 -13 19 -13 -6z"/>
<path d="M1440 3755 c0 -8 7 -15 15 -15 23 0 18 -38 -9 -64 -12 -13 -26 -31
-29 -40 -9 -22 -28 -20 -34 4 -11 43 -21 16 -21 -60 -1 -67 2 -80 15 -80 15 0
15 -2 0 -18 -10 -10 -17 -28 -17 -40 0 -19 -6 -22 -40 -22 -29 0 -40 4 -40 15
0 20 -63 20 -95 -1 -18 -12 -28 -13 -44 -5 -25 14 -101 14 -101 1 0 -5 18 -10
40 -10 22 0 40 -4 40 -10 0 -5 -18 -10 -40 -10 -22 0 -40 -4 -40 -10 0 -12
-31 -2 -45 15 -5 6 -18 14 -28 18 -15 5 -21 0 -30 -23 -12 -31 -21 -37 -32
-20 -3 6 -46 10 -96 10 -88 0 -89 0 -89 -25 0 -15 -6 -25 -14 -25 -8 0 -17 -6
-20 -12 -5 -10 -7 -10 -12 0 -3 6 -12 12 -20 12 -8 0 -14 10 -14 26 0 14 -4
23 -10 19 -5 -3 -10 -15 -10 -26 0 -10 -5 -19 -12 -19 -6 0 -20 -7 -30 -17
-17 -15 -18 -15 -18 5 0 25 -25 30 -34 7 -3 -8 -15 -15 -26 -15 -11 0 -20 -7
-20 -15 0 -21 -50 -40 -72 -26 -12 7 -20 6 -28 -4 -9 -11 -9 -15 -1 -15 6 0
20 -9 31 -20 l20 -20 -26 -25 c-22 -21 -25 -30 -20 -60 6 -28 4 -35 -9 -35
-11 0 -15 11 -15 40 0 22 -2 40 -3 40 -2 0 -19 -8 -38 -17 -24 -12 -53 -17
-97 -15 l-62 2 0 -75 0 -75 -42 -1 c-37 -1 -35 -3 22 -11 69 -10 95 -23 67
-34 -15 -5 -13 -9 9 -26 24 -19 27 -19 42 -4 15 15 15 16 -1 16 -9 0 -17 7
-17 15 0 11 12 15 49 15 41 0 53 4 69 25 27 34 37 32 52 -15 11 -34 17 -40 42
-40 22 0 28 5 28 23 1 25 22 57 39 57 16 0 13 -30 -4 -36 -8 -4 -15 -15 -15
-25 0 -10 -4 -19 -10 -19 -5 0 -10 -9 -10 -20 0 -24 25 -17 55 14 l20 21 3
-33 c3 -29 5 -32 19 -21 13 11 17 10 29 -6 7 -11 18 -25 24 -32 5 -7 10 -21
10 -32 0 -18 3 -19 25 -11 14 5 29 9 33 9 4 -1 31 -1 60 0 39 1 52 5 52 16 0
8 7 15 15 15 8 0 15 -7 15 -15 0 -29 49 -18 68 15 21 37 27 37 43 1 11 -25 20
-30 59 -33 25 -3 51 0 58 5 9 7 17 6 24 -1 21 -21 28 -13 28 33 0 51 10 56 38
20 23 -28 37 -32 46 -10 7 19 35 19 50 1 7 -9 42 -17 99 -21 78 -6 87 -5 87
10 0 18 -3 18 125 1 22 -3 34 -3 28 0 -15 7 -17 40 -3 49 6 3 10 -1 10 -9 0
-9 4 -16 10 -16 14 0 31 37 24 54 -3 9 -1 16 5 16 6 0 11 -4 11 -10 0 -5 7
-10 15 -10 11 0 15 -12 15 -51 0 -31 4 -48 10 -44 6 3 10 26 10 51 0 42 1 44
30 44 17 0 30 -4 30 -10 0 -5 5 -10 11 -10 22 0 39 30 39 68 0 23 6 45 15 52
13 11 15 5 15 -44 0 -43 3 -56 15 -56 12 0 15 16 15 80 l0 80 36 0 c23 0 41
-6 49 -17 9 -12 26 -16 69 -14 40 1 56 -2 56 -11 0 -9 3 -8 10 2 18 28 11 40
-25 40 l-35 0 0 80 c0 47 4 80 10 80 6 0 10 18 10 40 0 22 -4 40 -10 40 -5 0
-10 -18 -10 -40 l0 -40 -40 0 -40 0 0 40 c0 22 5 40 10 40 6 0 10 14 10 30 0
17 -4 30 -10 30 -5 0 -10 -13 -10 -30 0 -30 -1 -30 -55 -30 -42 0 -55 3 -55
15 0 11 -11 15 -40 15 -29 0 -40 -4 -40 -15 0 -11 -11 -15 -40 -15 l-40 0 0
40 0 40 -40 0 -40 0 0 49 c0 44 -3 49 -25 55 -16 4 -27 15 -30 31 -16 77 -20
80 -23 13 l-3 -68 -39 0 c-39 0 -40 1 -40 34 0 19 -3 43 -6 53 -5 15 -4 15 5
3 8 -12 11 -7 11 22 0 28 5 38 20 43 11 3 20 14 20 24 0 9 7 26 15 37 27 36
19 54 -25 54 -29 0 -40 -4 -40 -15z m80 -295 c0 -23 -36 -32 -51 -14 -9 11 -9
17 0 28 15 18 51 9 51 -14z m-120 16 c0 -3 -4 -8 -10 -11 -5 -3 -10 -1 -10 4
0 6 5 11 10 11 6 0 10 -2 10 -4z m120 -76 c38 -38 20 -41 -25 -5 -23 19 -26
25 -12 25 9 0 26 -9 37 -20z m-300 -9 c0 -5 -7 -11 -15 -15 -15 -5 -20 5 -8
17 9 10 23 9 23 -2z m140 -1 c0 -5 -5 -10 -11 -10 -5 0 -7 5 -4 10 3 6 8 10
11 10 2 0 4 -4 4 -10z m-237 -21 c-6 -6 -28 -9 -49 -6 l-39 4 43 1 c24 1 42 7
42 14 0 6 3 8 7 5 4 -4 2 -12 -4 -18z m324 -1 c-3 -8 -6 -5 -6 6 -1 11 2 17 5
13 3 -3 4 -12 1 -19z m-167 -28 c0 -5 -2 -10 -4 -10 -3 0 -8 5 -11 10 -3 6 -1
10 4 10 6 0 11 -4 11 -10z m-323 -6 c-3 -3 -12 -4 -19 -1 -8 3 -5 6 6 6 11 1
17 -2 13 -5z m188 -24 c-3 -5 -10 -10 -16 -10 -5 0 -9 5 -9 10 0 6 7 10 16 10
8 0 12 -4 9 -10z m-585 -39 c0 -5 10 -11 23 -14 21 -3 21 -4 3 -12 -13 -6 -21
-5 -24 3 -2 7 -15 12 -28 12 -14 0 -22 4 -19 10 8 13 45 13 45 1z m587 -7 c-3
-3 -12 -4 -19 -1 -8 3 -5 6 6 6 11 1 17 -2 13 -5z m773 -24 c0 -11 -2 -20 -5
-20 -2 0 -9 9 -15 20 -9 16 -8 20 5 20 8 0 15 -9 15 -20z m-47 -57 c-7 -2 -19
-2 -25 0 -7 3 -2 5 12 5 14 0 19 -2 13 -5z m127 -43 c0 -29 -4 -40 -15 -40
-11 0 -15 11 -15 40 0 29 4 40 15 40 11 0 15 -11 15 -40z m-1680 -105 c0 -11
-11 -15 -40 -15 -29 0 -40 4 -40 15 0 11 11 15 40 15 29 0 40 -4 40 -15z m703
-12 c-7 -2 -19 -2 -25 0 -7 3 -2 5 12 5 14 0 19 -2 13 -5z m44 -59 c-3 -3 -12
-4 -19 -1 -8 3 -5 6 6 6 11 1 17 -2 13 -5z m149 -9 c-21 -16 -32 -13 -21 4 3
6 14 11 23 11 15 -1 15 -2 -2 -15z m-416 -60 c0 -11 -11 -15 -40 -15 -29 0
-40 4 -40 15 0 11 11 15 40 15 29 0 40 -4 40 -15z m240 -20 c0 -11 -11 -15
-40 -15 -29 0 -40 4 -40 15 0 11 11 15 40 15 29 0 40 -4 40 -15z m303 8 c-13
-2 -33 -2 -45 0 -13 2 -3 4 22 4 25 0 35 -2 23 -4z"/>
<path d="M1273 3620 c0 -25 2 -35 4 -22 2 12 2 32 0 45 -2 12 -4 2 -4 -23z"/>
<path d="M5521 3504 c0 -11 3 -14 6 -6 3 7 2 16 -1 19 -3 4 -6 -2 -5 -13z"/>
<path d="M1040 3485 c0 -8 2 -15 4 -15 2 0 6 7 10 15 3 8 1 15 -4 15 -6 0 -10
-7 -10 -15z"/>
<path d="M1110 3480 c12 -22 25 -26 35 -11 3 6 -3 15 -14 20 -28 16 -33 14
-21 -9z"/>
<path d="M1177 3484 c-8 -8 1 -24 14 -24 5 0 9 7 9 15 0 15 -12 20 -23 9z"/>
<path d="M900 3460 c0 -13 7 -20 20 -20 13 0 20 7 20 20 0 13 -7 20 -20 20
-13 0 -20 -7 -20 -20z"/>
<path d="M3068 3473 c7 -3 16 -2 19 1 4 3 -2 6 -13 5 -11 0 -14 -3 -6 -6z"/>
<path d="M787 3444 l-18 -24 31 0 c33 0 37 7 18 33 -12 14 -15 14 -31 -9z"/>
<path d="M861 3452 c-14 -26 -10 -36 11 -30 10 2 12 11 8 28 l-6 25 -13 -23z"/>
<path d="M5510 3451 c0 -29 15 -33 16 -5 1 13 -2 24 -7 24 -5 0 -9 -9 -9 -19z"/>
<path d="M560 3411 c0 -5 -10 -12 -22 -15 -21 -6 -22 -7 -5 -17 10 -6 25 -8
33 -5 16 6 20 46 4 46 -5 0 -10 -4 -10 -9z"/>
<path d="M3015 3400 c-3 -5 1 -10 9 -10 9 0 16 5 16 10 0 6 -4 10 -9 10 -6 0
-13 -4 -16 -10z"/>
<path d="M3062 3358 c3 -7 13 -15 22 -16 12 -3 17 1 14 10 -3 7 -13 15 -22 16
-12 3 -17 -1 -14 -10z"/>
<path d="M3220 3350 c8 -5 22 -10 30 -10 13 0 13 1 0 10 -8 5 -22 10 -30 10
-13 0 -13 -1 0 -10z"/>
<path d="M400 3325 c0 -8 5 -15 10 -15 6 0 10 7 10 15 0 8 -4 15 -10 15 -5 0
-10 -7 -10 -15z"/>
<path d="M2980 3336 c0 -2 9 -6 20 -9 11 -3 20 -1 20 4 0 5 -9 9 -20 9 -11 0
-20 -2 -20 -4z"/>
<path d="M2800 3310 c0 -5 21 -10 46 -10 27 0 43 4 39 10 -3 6 -24 10 -46 10
-21 0 -39 -4 -39 -10z"/>
<path d="M3163 3313 c9 -2 25 -2 35 0 9 3 1 5 -18 5 -19 0 -27 -2 -17 -5z"/>
<path d="M5576 3301 c-10 -10 -13 -22 -8 -25 5 -3 14 6 20 19 14 30 11 31 -12
6z"/>
<path d="M4263 3292 c15 -9 27 -20 27 -24 0 -5 5 -8 12 -8 6 0 1 11 -12 25
-13 14 -31 25 -39 25 -10 0 -6 -7 12 -18z"/>
<path d="M3458 3283 c6 -2 18 -2 25 0 6 3 1 5 -13 5 -14 0 -19 -2 -12 -5z"/>
<path d="M3033 3273 c9 -2 25 -2 35 0 9 3 1 5 -18 5 -19 0 -27 -2 -17 -5z"/>
<path d="M2800 3226 c0 -43 -2 -46 -27 -46 -26 -1 -26 -2 -9 -12 18 -10 15
-12 -24 -27 -43 -16 -65 -41 -37 -41 9 0 17 4 19 10 2 5 42 11 90 14 116 7
188 17 188 26 0 5 -35 8 -77 7 -58 -2 -77 1 -75 11 1 6 -7 12 -18 12 -17 0
-20 7 -20 40 0 38 2 40 29 40 28 0 30 -3 34 -42 l4 -43 -1 45 c-1 45 -1 45
-38 48 l-38 3 0 -45z"/>
<path d="M2190 3242 c0 -10 -7 -28 -16 -40 -14 -21 -14 -22 10 -22 18 0 26 5
26 18 0 10 7 27 15 38 13 18 14 17 15 -18 0 -27 4 -38 15 -38 11 0 15 11 15
40 l0 40 -40 0 c-32 0 -40 -4 -40 -18z"/>
<path d="M3020 3250 c0 -5 5 -10 10 -10 6 0 10 5 10 10 0 6 -4 10 -10 10 -5 0
-10 -4 -10 -10z"/>
<path d="M4330 3245 c7 -9 15 -13 17 -11 7 7 -7 26 -19 26 -6 0 -6 -6 2 -15z"/>
<path d="M4375 3250 c3 -5 11 -10 16 -10 6 0 7 5 4 10 -3 6 -11 10 -16 10 -6
0 -7 -4 -4 -10z"/>
<path d="M4382 3206 c15 -14 32 -26 38 -26 18 0 1 19 -33 36 l-32 16 27 -26z"/>
<path d="M20 3200 c0 -11 5 -20 10 -20 6 0 10 9 10 20 0 11 -4 20 -10 20 -5 0
-10 -9 -10 -20z"/>
<path d="M4460 3211 c0 -6 5 -13 10 -16 6 -3 10 1 10 9 0 9 -4 16 -10 16 -5 0
-10 -4 -10 -9z"/>
<path d="M2615 3179 c-7 -32 12 -68 22 -41 3 9 16 11 40 6 34 -6 34 -6 21 15
-7 11 -23 21 -35 21 -14 0 -23 6 -23 15 0 27 -18 16 -25 -16z"/>
<path d="M3360 3200 c0 -13 11 -13 30 0 12 8 11 10 -7 10 -13 0 -23 -4 -23
-10z"/>
<path d="M74 3105 c0 -49 1 -71 3 -48 2 23 2 64 0 90 -2 26 -3 8 -3 -42z"/>
<path d="M2985 3180 c-22 -5 -13 -7 35 -7 44 0 57 3 40 8 -31 9 -37 9 -75 -1z"/>
<path d="M3151 3176 c2 -2 22 -6 44 -9 28 -5 34 -4 20 3 -19 8 -73 14 -64 6z"/>
<path d="M4105 3170 c3 -5 11 -10 16 -10 6 0 7 5 4 10 -3 6 -11 10 -16 10 -6
0 -7 -4 -4 -10z"/>
<path d="M4442 3173 c-10 -4 -8 -9 7 -20 22 -15 41 -10 41 10 0 7 -4 6 -10 -3
-8 -13 -10 -12 -10 3 0 17 -5 19 -28 10z"/>
<path d="M42 3095 c0 -77 1 -78 8 -27 4 29 4 65 0 80 -6 19 -8 3 -8 -53z"/>
<path d="M4226 3161 c-7 -11 14 -20 32 -14 6 3 12 9 12 14 0 12 -37 12 -44 0z"/>
<path d="M4335 3131 c-6 -11 9 -23 19 -14 9 9 7 23 -3 23 -6 0 -12 -4 -16 -9z"/>
<path d="M3146 3038 c5 -8 0 -9 -14 -6 -12 4 -20 2 -16 -3 3 -5 -7 -9 -21 -9
-17 0 -24 4 -19 12 5 8 -4 9 -32 5 -21 -3 -63 -9 -91 -13 -35 -4 -53 -11 -53
-20 0 -8 -6 -24 -12 -37 -7 -12 -14 -23 -15 -25 -1 -2 -10 1 -21 7 -43 23 -67
-13 -37 -53 9 -12 15 -42 15 -77 0 -49 4 -60 25 -77 29 -23 32 -39 8 -45 -10
-2 0 -2 22 1 21 2 46 8 55 12 8 4 53 18 100 30 47 12 121 33 165 45 110 32
210 51 340 66 66 7 115 18 124 26 9 9 16 11 20 4 4 -6 76 -8 209 -4 111 3 201
8 198 10 -2 2 -37 6 -77 9 -79 6 -91 10 -70 23 16 10 6 31 -15 31 -8 0 -14 5
-14 11 0 16 -198 8 -212 -8 -8 -10 0 -13 38 -14 27 -1 41 -3 32 -6 -10 -2 -18
-9 -18 -14 0 -16 -90 -11 -96 6 -7 17 -60 21 -66 5 -2 -7 -19 -5 -47 5 -24 8
-59 15 -77 15 -31 0 -34 3 -34 30 0 28 2 30 43 31 34 2 36 3 12 6 -16 3 -34
10 -38 16 -6 9 -10 9 -14 0 -6 -15 -53 -18 -53 -3 0 6 -7 10 -15 10 -8 0 -15
-4 -15 -10 0 -15 -64 -12 -96 5 -35 18 -129 21 -118 3z m-196 -59 c0 -24 -23
-21 -28 4 -2 10 3 17 12 17 10 0 16 -9 16 -21z m534 -54 c-5 -11 -11 -12 -25
-4 -26 13 -24 19 6 19 17 0 23 -4 19 -15z m375 4 c40 -14 40 -25 -1 -32 -44
-6 -57 0 -51 24 6 22 9 23 52 8z m-968 -49 c5 0 9 -4 9 -10 0 -5 -11 -10 -25
-10 -28 0 -30 3 -13 33 11 19 13 20 16 5 2 -10 8 -18 13 -18z m734 10 c3 -5
-1 -10 -9 -10 -9 0 -16 5 -16 10 0 6 4 10 9 10 6 0 13 -4 16 -10z"/>
<path d="M3732 3023 c-27 -4 -31 -7 -22 -18 6 -8 19 -11 28 -7 18 6 49 33 35
30 -4 0 -23 -3 -41 -5z"/>
<path d="M3840 3020 c0 -5 19 -10 42 -10 49 0 47 5 -4 14 -24 4 -38 3 -38 -4z"/>
<path d="M5540 2975 c-6 -19 -16 -33 -21 -30 -5 4 -6 -1 -3 -9 8 -22 54 21 54
51 0 34 -17 28 -30 -12z"/>
<path d="M4000 2960 c0 -5 5 -10 11 -10 5 0 7 5 4 10 -3 6 -8 10 -11 10 -2 0
-4 -4 -4 -10z"/>
<path d="M41 2924 c0 -11 3 -14 6 -6 3 7 2 16 -1 19 -3 4 -6 -2 -5 -13z"/>
<path d="M2670 2930 c0 -5 5 -10 10 -10 6 0 10 5 10 10 0 6 -4 10 -10 10 -5 0
-10 -4 -10 -10z"/>
<path d="M2720 2930 c0 -5 7 -10 15 -10 8 0 15 5 15 10 0 6 -7 10 -15 10 -8 0
-15 -4 -15 -10z"/>
<path d="M4088 2903 c6 -2 18 -2 25 0 6 3 1 5 -13 5 -14 0 -19 -2 -12 -5z"/>
<path d="M4179 2875 c35 -16 126 -21 103 -6 -7 4 -24 6 -38 3 -14 -2 -24 0
-24 7 0 6 -16 11 -37 11 l-38 -1 34 -14z"/>
<path d="M554 2844 c3 -9 6 -21 6 -27 0 -16 20 14 20 31 0 6 -7 12 -16 12 -11
0 -14 -5 -10 -16z"/>
<path d="M1507 2836 c20 -27 33 -25 33 5 0 14 -7 19 -25 19 -26 0 -26 0 -8
-24z"/>
<path d="M1587 2823 c-11 -10 -8 -43 3 -43 6 0 10 11 10 25 0 26 -2 29 -13 18z"/>
<path d="M5620 2815 c0 -10 7 -15 18 -13 21 4 19 22 -2 26 -10 2 -16 -3 -16
-13z"/>
<path d="M1360 2795 c0 -11 11 -15 40 -15 29 0 40 4 40 15 0 11 -11 15 -40 15
-29 0 -40 -4 -40 -15z"/>
<path d="M3408 2796 c-20 -6 -40 -14 -44 -18 -4 -5 -12 -8 -18 -8 -6 0 -4 5 4
11 24 16 -50 2 -197 -39 -73 -20 -133 -42 -133 -48 0 -6 -22 -14 -51 -16 -27
-3 -56 -11 -62 -18 -10 -10 -7 -11 13 -8 14 3 33 9 43 13 10 4 17 3 17 -4 0
-6 -6 -11 -14 -11 -7 0 -27 -7 -42 -15 -16 -8 -24 -15 -17 -15 7 0 10 -6 7
-14 -5 -12 1 -12 38 1 23 8 46 19 49 25 4 6 13 8 20 6 8 -3 20 1 27 8 7 7 54
27 105 43 51 16 116 38 146 50 29 11 74 23 100 27 36 6 42 9 26 15 -16 6 -17
8 -3 8 9 1 20 6 23 11 3 6 5 10 3 9 -2 -1 -20 -6 -40 -13z m-441 -172 c-3 -3
-12 -4 -19 -1 -8 3 -5 6 6 6 11 1 17 -2 13 -5z"/>
<path d="M5540 2800 c-12 -8 -11 -10 7 -10 12 0 25 5 28 10 8 13 -15 13 -35 0z"/>
<path d="M1455 2790 c-4 -6 5 -10 20 -10 15 0 24 4 20 10 -3 6 -12 10 -20 10
-8 0 -17 -4 -20 -10z"/>
<path d="M863 2763 c16 -16 18 -16 34 0 16 16 15 17 -17 17 -32 0 -33 -1 -17
-17z"/>
<path d="M1191 2744 c0 -11 3 -14 6 -6 3 7 2 16 -1 19 -3 4 -6 -2 -5 -13z"/>
<path d="M5453 2743 c-7 -2 -13 -19 -13 -36 l0 -30 25 23 c38 36 31 61 -12 43z"/>
<path d="M3670 2729 c-99 -23 -136 -29 -152 -23 -11 3 -24 1 -31 -4 -7 -5 -33
-13 -59 -16 -29 -4 -52 -14 -58 -24 -5 -10 -10 -12 -10 -4 0 6 -9 12 -20 12
-17 0 -39 -7 -115 -36 -11 -4 -23 -8 -27 -8 -3 -1 -10 -4 -14 -8 -4 -5 -17 -8
-29 -8 -12 0 -30 -9 -40 -20 -10 -11 -26 -20 -37 -20 -10 0 -18 -5 -18 -11 0
-6 -7 -9 -15 -5 -8 3 -15 1 -15 -4 0 -6 -9 -10 -20 -10 -13 0 -17 -5 -14 -14
3 -8 -1 -27 -9 -43 -9 -16 -18 -45 -22 -66 -6 -30 -11 -37 -31 -37 -29 0 -30
-16 -7 -65 13 -27 22 -35 36 -31 28 7 141 -16 150 -31 5 -9 15 -10 33 -3 17 7
46 6 87 -1 52 -10 68 -9 99 4 25 11 38 12 40 5 3 -7 19 -1 41 14 20 13 34 28
30 32 -4 4 0 4 10 0 9 -3 17 -2 17 3 0 5 23 22 50 38 28 16 50 32 50 36 0 4 9
9 21 12 13 4 18 10 13 18 -4 7 -3 10 3 6 6 -4 42 8 79 27 38 18 94 41 124 51
30 10 60 22 66 27 7 5 27 10 45 12 19 3 77 13 129 24 52 11 136 23 186 27 67
5 91 10 91 20 0 8 -7 17 -14 19 -8 3 -11 10 -8 16 3 5 -2 10 -12 10 -15 0 -16
2 -3 11 15 11 -84 8 -336 -7 -55 -4 -123 -3 -150 1 -45 7 -47 8 -24 17 14 5
38 7 53 4 40 -8 435 20 425 29 -2 2 -40 6 -86 10 -46 4 -98 11 -115 16 -39 11
-339 10 -387 -2z"/>
<path d="M880 2710 c0 -5 5 -10 11 -10 5 0 7 5 4 10 -3 6 -8 10 -11 10 -2 0
-4 -4 -4 -10z"/>
<path d="M1178 2703 c7 -3 16 -2 19 1 4 3 -2 6 -13 5 -11 0 -14 -3 -6 -6z"/>
<path d="M1280 2686 c0 -7 7 -20 16 -27 14 -11 18 -10 30 6 21 28 17 35 -16
35 -19 0 -30 -5 -30 -14z"/>
<path d="M5555 2660 c-11 -4 -23 -6 -26 -4 -4 2 -12 -3 -19 -11 -8 -10 -10
-30 -5 -62 4 -27 9 -43 12 -37 2 6 15 9 29 6 24 -4 25 -3 15 17 -15 26 -7 41
22 41 16 0 18 3 8 9 -9 6 -10 11 -2 15 28 17 0 38 -34 26z"/>
<path d="M4895 2631 c-3 -6 -1 -11 4 -11 20 0 11 -39 -13 -63 l-24 -24 48 -2
c52 -1 54 0 64 42 5 20 3 27 -8 27 -8 0 -16 -6 -19 -12 -6 -18 -19 -3 -21 23
-1 24 -20 36 -31 20z"/>
<path d="M2860 2626 c0 -2 7 -7 16 -10 8 -3 12 -2 9 4 -6 10 -25 14 -25 6z"/>
<path d="M1220 2580 c0 -19 3 -21 12 -12 9 9 9 15 0 24 -9 9 -12 7 -12 -12z"/>
<path d="M1272 2580 c0 -14 2 -19 5 -12 2 6 2 18 0 25 -3 6 -5 1 -5 -13z"/>
<path d="M1440 2554 c0 -9 5 -14 12 -12 18 6 21 28 4 28 -9 0 -16 -7 -16 -16z"/>
<path d="M5201 2546 c-14 -17 -7 -36 14 -36 22 0 29 20 13 36 -13 13 -16 13
-27 0z"/>
<path d="M4215 2539 c-16 -5 -69 -12 -117 -15 -49 -4 -88 -11 -88 -16 0 -5 -5
-6 -11 -3 -6 4 -26 4 -45 0 -26 -4 -34 -10 -30 -21 3 -8 2 -13 -3 -10 -5 3
-27 -1 -49 -8 -22 -8 -42 -12 -45 -10 -8 9 -135 -47 -141 -62 -3 -7 -12 -11
-19 -8 -15 5 -119 -51 -125 -67 -2 -5 -8 -9 -13 -9 -9 0 -49 -36 -49 -45 0 -3
7 -5 15 -5 8 0 15 6 15 14 0 8 4 18 10 21 5 3 7 0 4 -9 -5 -13 0 -13 43 0 26
8 50 19 51 24 2 6 11 10 21 10 9 0 36 9 59 20 22 11 45 20 50 20 5 0 20 8 33
19 13 10 39 22 57 25 17 4 32 11 32 16 0 8 38 23 53 21 4 -1 18 4 30 10 12 7
35 16 52 20 103 26 260 71 264 75 7 6 -21 3 -54 -7z m-228 -45 c-3 -3 -12 -4
-19 -1 -8 3 -5 6 6 6 11 1 17 -2 13 -5z"/>
<path d="M5286 2525 c-3 -9 1 -18 8 -21 10 -4 13 -16 9 -41 -5 -27 -2 -38 10
-45 10 -5 17 -17 18 -26 0 -9 7 1 16 23 9 22 24 45 32 52 14 11 13 15 -9 36
-32 32 -76 43 -84 22z"/>
<path d="M4880 2489 c0 -8 -9 -22 -20 -32 -18 -15 -24 -14 -21 6 2 15 -20 6
-25 -10 -3 -10 -10 -26 -15 -36 -15 -28 -1 -66 22 -60 21 6 26 23 7 23 -6 0
-9 2 -7 5 3 2 14 2 26 -1 23 -6 21 -32 -4 -47 -7 -4 -13 -18 -13 -30 0 -13 -5
-28 -11 -34 -8 -8 -8 -21 2 -50 32 -97 46 -115 69 -88 9 11 8 19 -4 37 -19 27
-20 48 -4 83 14 31 21 31 58 3 16 -12 32 -19 36 -16 9 9 11 179 2 184 -4 3 -8
12 -8 20 0 8 -9 24 -20 36 -15 16 -22 18 -33 10 -10 -9 -16 -9 -25 0 -9 9 -12
9 -12 -3z"/>
<path d="M1360 2420 c0 -29 4 -40 15 -40 11 0 15 11 15 40 0 29 -4 40 -15 40
-11 0 -15 -11 -15 -40z"/>
<path d="M4105 2403 c-16 -3 -34 -9 -39 -14 -6 -5 -20 -9 -32 -9 -13 0 -25 -4
-28 -9 -3 -4 -23 -11 -44 -15 -21 -3 -51 -17 -67 -31 -15 -15 -33 -24 -41 -21
-8 3 -11 0 -7 -10 6 -17 8 -17 31 -5 9 5 53 22 97 37 44 14 84 30 90 35 5 5
15 9 22 9 7 0 27 9 45 20 33 20 30 21 -27 13z"/>
<path d="M5472 2368 c-5 -5 -7 -18 -5 -29 4 -14 14 -19 39 -19 42 0 44 19 5
41 -19 11 -32 14 -39 7z"/>
<path d="M1360 2320 c0 -28 -3 -30 -36 -30 -29 0 -44 -8 -75 -39 -57 -57 -40
-67 109 -64 121 3 146 10 118 38 -20 20 -20 31 -1 39 17 6 20 36 4 36 -7 0
-18 -8 -25 -17 -13 -17 -13 -17 -14 0 0 9 -7 17 -15 17 -8 0 -19 8 -24 19 -6
10 -17 21 -26 25 -11 4 -15 -2 -15 -24z"/>
<path d="M5580 2326 c0 -2 7 -9 15 -16 13 -11 14 -10 9 4 -5 14 -24 23 -24 12z"/>
<path d="M6140 2301 c-24 -7 -24 -7 -4 -21 11 -8 23 -23 27 -32 3 -10 15 -18
26 -18 20 0 31 -18 31 -50 0 -10 10 -22 22 -26 22 -7 112 -67 136 -90 11 -12
42 -9 42 3 0 3 -6 3 -14 0 -9 -4 -25 9 -41 34 -16 22 -36 39 -47 39 -11 0 -17
4 -13 9 3 5 1 12 -5 16 -5 3 -10 10 -10 16 0 14 28 11 33 -3 2 -7 8 -10 12 -6
12 11 -5 28 -29 28 -13 0 -36 11 -52 25 -16 14 -35 25 -43 25 -10 0 -11 3 -2
14 15 17 0 29 -25 19 -13 -5 -16 -3 -11 10 7 18 5 19 -33 8z"/>
<path d="M6236 2294 c-8 -22 -4 -25 11 -9 7 8 9 16 4 19 -5 3 -12 -1 -15 -10z"/>
<path d="M6371 2167 c2 -1 12 -9 22 -16 15 -12 17 -12 11 3 -3 9 -13 16 -22
16 -8 0 -13 -1 -11 -3z"/>
<path d="M6300 2063 c0 -5 15 -17 33 -28 l32 -19 -16 24 c-16 25 -49 40 -49
23z"/>
<path d="M7271 2008 c-1 -20 4 -28 15 -28 12 0 14 4 7 13 -6 6 -13 19 -16 27
-3 9 -6 3 -6 -12z"/>
<path d="M7520 1690 c0 -5 7 -10 15 -10 8 0 15 5 15 10 0 6 -7 10 -15 10 -8 0
-15 -4 -15 -10z"/>
<path d="M7564 1648 c1 -13 7 -23 16 -23 8 0 16 10 18 23 3 16 -2 22 -16 22
-14 0 -19 -7 -18 -22z"/>
<path d="M7565 1590 c-4 -6 3 -10 14 -10 25 0 27 6 6 13 -8 4 -17 2 -20 -3z"/>
<path d="M6016 1224 c-10 -26 -7 -34 13 -34 11 0 21 -4 23 -9 9 -25 78 -7 78
20 0 23 -25 36 -72 37 -24 1 -38 -4 -42 -14z"/>
<path d="M9053 1183 c-18 -7 -16 -33 1 -33 9 0 14 9 13 20 -1 11 -1 20 -2 19
0 0 -6 -3 -12 -6z"/>
<path d="M11870 689 c0 -5 5 -7 10 -4 6 3 10 8 10 11 0 2 -4 4 -10 4 -5 0 -10
-5 -10 -11z"/>
<path d="M6445 40 c-3 -5 3 -10 14 -10 12 0 21 5 21 10 0 6 -6 10 -14 10 -8 0
-18 -4 -21 -10z"/>
</g>
</svg>
