<svg width="1919" height="743" viewBox="0 0 1919 743" fill="none" xmlns="http://www.w3.org/2000/svg">
<g clip-path="url(#clip0_32_199)">
<rect x="-2" width="1921" height="743" fill="url(#paint0_linear_32_199)"/>
<path d="M1411.05 -552.336C1284.22 -494.131 1238.51 -375.851 1244.06 -236.407C1249.07 -110.303 1294.42 -20.3456 1402.1 45.4728C1548.55 134.99 1716.07 91.2636 1834.58 -32.8989C1930.6 -133.502 1807.51 -306.83 1927.82 -376.6C2029.57 -435.608 2128.27 -279.278 2227.13 -343.011C2350.31 -422.421 2338.63 -592.253 2261.27 -716.732C2192.92 -826.732 2090.51 -884.991 1963.08 -861.85C1795.67 -831.445 1913.44 -538.089 1753.58 -479.817C1625.12 -432.992 1535.32 -609.363 1411.05 -552.336Z" stroke="white" stroke-opacity="0.5" stroke-width="0.5"/>
<path d="M1422.52 -531.838C1295.68 -473.633 1249.98 -355.353 1255.52 -215.909C1260.53 -89.8052 1305.88 0.152453 1413.57 65.9708C1560.02 155.488 1727.53 111.762 1846.04 -12.4008C1942.07 -113.004 1818.98 -286.332 1939.29 -356.102C2041.04 -415.109 2139.74 -258.78 2238.6 -322.513C2361.77 -401.923 2350.09 -571.755 2272.74 -696.234C2204.38 -806.234 2101.97 -864.493 1974.55 -841.352C1807.13 -810.947 1924.91 -517.591 1765.04 -459.319C1636.58 -412.494 1546.79 -588.865 1422.52 -531.838Z" stroke="white" stroke-opacity="0.5" stroke-width="0.5"/>
<path d="M1433.98 -511.341C1307.15 -453.136 1261.44 -334.856 1266.98 -195.412C1272 -69.3082 1317.35 20.6495 1425.03 86.4679C1571.48 175.985 1738.99 132.259 1857.51 8.09624C1953.53 -92.5073 1830.44 -265.835 1950.75 -335.605C2052.5 -394.612 2151.2 -238.283 2250.06 -302.016C2373.24 -381.426 2361.56 -551.258 2284.2 -675.737C2215.85 -785.737 2113.44 -843.996 1986.01 -820.855C1818.6 -790.45 1936.37 -497.094 1776.51 -438.822C1648.05 -391.997 1558.25 -568.368 1433.98 -511.341Z" stroke="white" stroke-opacity="0.5" stroke-width="0.5"/>
<path d="M1445.45 -490.843C1318.61 -432.637 1272.91 -314.358 1278.45 -174.914C1283.46 -48.8101 1328.81 41.1476 1436.49 106.966C1582.95 196.483 1750.46 152.757 1868.97 28.5943C1965 -72.0092 1841.91 -245.337 1962.21 -315.107C2063.96 -374.114 2162.67 -217.784 2261.53 -281.518C2384.7 -360.928 2373.02 -530.76 2295.67 -655.239C2227.31 -765.239 2124.9 -823.498 1997.48 -800.356C1830.06 -769.952 1947.84 -476.596 1787.97 -418.324C1659.51 -371.499 1569.72 -547.87 1445.45 -490.843Z" stroke="white" stroke-opacity="0.5" stroke-width="0.5"/>
<path d="M1456.91 -470.345C1330.08 -412.139 1284.37 -293.86 1289.91 -154.415C1294.93 -28.3121 1340.28 61.6456 1447.96 127.464C1594.41 216.981 1761.92 173.255 1880.44 49.0923C1976.46 -51.5112 1853.37 -224.839 1973.68 -294.609C2075.43 -353.616 2174.13 -197.286 2272.99 -261.02C2396.17 -340.43 2384.48 -510.262 2307.13 -634.741C2238.78 -744.741 2136.37 -803 2008.94 -779.858C1841.53 -749.454 1959.3 -456.098 1799.44 -397.826C1670.98 -351.001 1581.18 -527.372 1456.91 -470.345Z" stroke="white" stroke-opacity="0.5" stroke-width="0.5"/>
<path d="M1468.38 -449.847C1341.54 -391.641 1295.84 -273.362 1301.38 -133.917C1306.39 -7.81401 1351.74 82.1437 1459.42 147.962C1605.87 237.479 1773.39 193.753 1891.9 69.5904C1987.93 -31.0131 1864.83 -204.341 1985.14 -274.111C2086.89 -333.118 2185.6 -176.788 2284.46 -240.522C2407.63 -319.932 2395.95 -489.764 2318.6 -614.243C2250.24 -724.243 2147.83 -782.502 2020.41 -759.36C1852.99 -728.956 1970.77 -435.6 1810.9 -377.328C1682.44 -330.503 1592.65 -506.874 1468.38 -449.847Z" stroke="white" stroke-opacity="0.5" stroke-width="0.5"/>
<path d="M1483.83 -423.396C1356.99 -365.19 1311.29 -246.911 1316.83 -107.466C1321.84 18.6372 1367.19 108.595 1474.87 174.413C1621.33 263.93 1788.84 220.204 1907.35 96.0416C2003.38 -4.56196 1880.29 -177.89 2000.59 -247.66C2102.34 -306.667 2201.05 -150.337 2299.91 -214.071C2423.08 -293.481 2411.4 -463.313 2334.05 -587.792C2265.69 -697.792 2163.28 -756.051 2035.86 -732.909C1868.44 -702.504 1986.22 -409.149 1826.35 -350.877C1697.89 -304.052 1608.1 -480.422 1483.83 -423.396Z" stroke="white" stroke-opacity="0.5" stroke-width="0.5"/>
<path d="M1499.28 -396.944C1372.44 -338.739 1326.74 -220.459 1332.28 -81.0151C1337.29 45.0883 1382.64 135.046 1490.33 200.864C1636.78 290.381 1804.29 246.655 1922.8 122.493C2018.83 21.8892 1895.74 -151.439 2016.05 -221.208C2117.8 -280.216 2216.5 -123.886 2315.36 -187.619C2438.53 -267.029 2426.85 -436.862 2349.5 -561.34C2281.14 -671.34 2178.73 -729.6 2051.31 -706.458C1883.89 -676.053 2001.67 -382.697 1841.8 -324.425C1713.34 -277.6 1623.55 -453.971 1499.28 -396.944Z" stroke="white" stroke-opacity="0.5" stroke-width="0.5"/>
<path d="M1514.73 -370.493C1387.89 -312.288 1342.19 -194.008 1347.73 -54.5639C1352.74 71.5395 1398.1 161.497 1505.78 227.316C1652.23 316.832 1819.74 273.106 1938.25 148.944C2034.28 48.3404 1911.19 -124.987 2031.5 -194.757C2133.25 -253.765 2231.95 -97.4349 2330.81 -161.168C2453.99 -240.578 2442.3 -410.411 2364.95 -534.889C2296.6 -644.889 2194.18 -703.149 2066.76 -680.007C1899.34 -649.602 2017.12 -356.246 1857.25 -297.974C1728.79 -251.149 1639 -427.52 1514.73 -370.493Z" stroke="white" stroke-opacity="0.5" stroke-width="0.5"/>
<path d="M1530.18 -344.043C1403.35 -285.838 1357.64 -167.558 1363.18 -28.1137C1368.19 97.9897 1413.55 187.947 1521.23 253.766C1667.68 343.283 1835.19 299.557 1953.7 175.394C2049.73 74.7906 1926.64 -98.5373 2046.95 -168.307C2148.7 -227.315 2247.4 -70.9847 2346.26 -134.718C2469.44 -214.128 2457.75 -383.96 2380.4 -508.439C2312.05 -618.439 2209.64 -676.698 2082.21 -653.557C1914.8 -623.152 2032.57 -329.796 1872.71 -271.524C1744.25 -224.699 1654.45 -401.07 1530.18 -344.043Z" stroke="white" stroke-opacity="0.5" stroke-width="0.5"/>
<path d="M1545.63 -317.592C1418.8 -259.387 1373.09 -141.107 1378.63 -1.66256C1383.65 124.441 1429 214.399 1536.68 280.217C1683.13 369.734 1850.64 326.008 1969.16 201.845C2065.18 101.242 1942.09 -72.0861 2062.4 -141.856C2164.15 -200.863 2262.85 -44.5335 2361.71 -108.267C2484.89 -187.677 2473.21 -357.509 2395.85 -481.988C2327.5 -591.988 2225.09 -650.247 2097.66 -627.106C1930.25 -596.701 2048.02 -303.345 1888.16 -245.073C1759.7 -198.248 1669.9 -374.619 1545.63 -317.592Z" stroke="white" stroke-opacity="0.5" stroke-width="0.5"/>
<path d="M1561.08 -291.141C1434.25 -232.935 1388.54 -114.656 1394.08 24.7886C1399.1 150.892 1444.45 240.85 1552.13 306.668C1698.58 396.185 1866.09 352.459 1984.61 228.296C2080.63 127.693 1957.54 -45.6349 2077.85 -115.405C2179.6 -174.412 2278.3 -18.0823 2377.16 -81.8156C2500.34 -161.226 2488.66 -331.058 2411.3 -455.537C2342.95 -565.537 2240.54 -623.796 2113.11 -600.654C1945.7 -570.25 2063.47 -276.894 1903.61 -218.622C1775.15 -171.797 1685.35 -348.168 1561.08 -291.141Z" stroke="white" stroke-opacity="0.5" stroke-width="0.5"/>
<path d="M1576.54 -264.689C1449.7 -206.484 1403.99 -88.2045 1409.54 51.2398C1414.55 177.343 1459.9 267.301 1567.58 333.119C1714.03 422.636 1881.55 378.91 2000.06 254.748C2096.08 154.144 1972.99 -19.1838 2093.3 -88.9535C2195.05 -147.961 2293.76 8.36884 2392.61 -55.3645C2515.79 -134.775 2504.11 -304.607 2426.76 -429.086C2358.4 -539.085 2255.99 -597.345 2128.57 -574.203C1961.15 -543.798 2078.93 -250.443 1919.06 -192.171C1790.6 -145.346 1700.8 -321.716 1576.54 -264.689Z" stroke="white" stroke-opacity="0.5" stroke-width="0.5"/>
<path d="M1591.99 -238.239C1465.15 -180.034 1419.45 -61.7544 1424.99 77.69C1430 203.793 1475.35 293.751 1583.03 359.569C1729.48 449.086 1897 405.36 2015.51 281.198C2111.53 180.594 1988.44 7.26642 2108.75 -62.5033C2210.5 -121.511 2309.21 34.819 2408.07 -28.9143C2531.24 -108.324 2519.56 -278.157 2442.21 -402.635C2373.85 -512.635 2271.44 -570.895 2144.02 -547.753C1976.6 -517.348 2094.38 -223.992 1934.51 -165.72C1806.05 -118.895 1716.26 -295.266 1591.99 -238.239Z" stroke="white" stroke-opacity="0.5" stroke-width="0.5"/>
<path d="M1607.44 -211.789C1480.6 -153.584 1434.9 -35.3042 1440.44 104.14C1445.45 230.244 1490.8 320.201 1598.48 386.02C1744.94 475.537 1912.45 431.811 2030.96 307.648C2126.99 207.044 2003.9 33.7166 2124.2 -36.0531C2225.95 -95.0607 2324.66 61.2692 2423.52 -2.46408C2546.69 -81.8741 2535.01 -251.706 2457.66 -376.185C2389.3 -486.185 2286.89 -544.445 2159.47 -521.303C1992.05 -490.898 2109.83 -197.542 1949.96 -139.27C1821.5 -92.4452 1731.71 -268.816 1607.44 -211.789Z" stroke="white" stroke-opacity="0.5" stroke-width="0.5"/>
<path d="M1622.89 -185.338C1496.05 -127.133 1450.35 -8.85298 1455.89 130.591C1460.9 256.695 1506.25 346.652 1613.93 412.471C1760.39 501.988 1927.9 458.262 2046.41 334.099C2142.44 233.496 2019.35 60.1678 2139.66 -9.6019C2241.41 -68.6095 2340.11 87.7204 2438.97 23.9871C2562.14 -55.423 2550.46 -225.255 2473.11 -349.734C2404.75 -459.734 2302.34 -517.993 2174.92 -494.852C2007.5 -464.447 2125.28 -171.091 1965.41 -112.819C1836.95 -65.994 1747.16 -242.365 1622.89 -185.338Z" stroke="white" stroke-opacity="0.5" stroke-width="0.5"/>
<path d="M1638.34 -158.887C1511.5 -100.681 1465.8 17.5982 1471.34 157.043C1476.35 283.146 1521.71 373.104 1629.39 438.922C1775.84 528.439 1943.35 484.713 2061.86 360.55C2157.89 259.947 2034.8 86.619 2155.11 16.8493C2256.86 -42.1583 2355.56 114.172 2454.42 50.4383C2577.6 -28.9718 2565.91 -198.804 2488.56 -323.283C2420.21 -433.283 2317.79 -491.542 2190.37 -468.4C2022.95 -437.996 2140.73 -144.64 1980.86 -86.3679C1852.4 -39.5429 1762.61 -215.914 1638.34 -158.887Z" stroke="white" stroke-opacity="0.5" stroke-width="0.5"/>
<path d="M1653.79 -132.436C1526.95 -74.2303 1481.25 44.0494 1486.79 183.494C1491.8 309.597 1537.16 399.555 1644.84 465.373C1791.29 554.89 1958.8 511.164 2077.31 387.002C2173.34 286.398 2050.25 113.07 2170.56 43.3004C2272.31 -15.7071 2371.01 140.623 2469.87 76.8894C2593.05 -2.52062 2581.36 -172.353 2504.01 -296.832C2435.66 -406.832 2333.25 -465.091 2205.82 -441.949C2038.41 -411.545 2156.18 -118.189 1996.32 -59.9167C1867.86 -13.0917 1778.06 -189.463 1653.79 -132.436Z" stroke="white" stroke-opacity="0.5" stroke-width="0.5"/>
<path d="M1669.24 -105.984C1542.41 -47.7791 1496.7 70.5005 1502.24 209.945C1507.26 336.048 1552.61 426.006 1660.29 491.824C1806.74 581.341 1974.25 537.615 2092.77 413.453C2188.79 312.849 2065.7 139.521 2186.01 69.7516C2287.76 10.744 2386.46 167.074 2485.32 103.341C2608.5 23.9306 2596.81 -145.902 2519.46 -270.38C2451.11 -380.38 2348.7 -438.64 2221.27 -415.498C2053.86 -385.093 2171.63 -91.7375 2011.77 -33.4655C1883.31 13.3595 1793.51 -163.011 1669.24 -105.984Z" stroke="white" stroke-opacity="0.5" stroke-width="0.5"/>
<path d="M714.854 427.903C831.501 460.088 959.028 553.769 975.942 743H-68.0221C-86.7737 534.646 -253.601 265.58 -19.2161 235.198C97.0592 220.126 103.313 351.252 215.23 404.032C424.549 502.747 335.991 323.37 714.854 427.903Z" fill="#F9E0E9"/>
<path d="M1037.78 204V165.12H1053.85C1054.22 165.12 1054.71 165.138 1055.3 165.174C1055.9 165.192 1056.45 165.246 1056.95 165.336C1059.2 165.678 1061.05 166.425 1062.51 167.577C1063.99 168.729 1065.08 170.187 1065.78 171.951C1066.5 173.697 1066.86 175.641 1066.86 177.783C1066.86 180.951 1066.06 183.678 1064.46 185.964C1062.85 188.232 1060.4 189.636 1057.09 190.176L1054.3 190.419H1044.29V204H1037.78ZM1060.11 204L1052.44 188.178L1059.06 186.72L1067.48 204H1060.11ZM1044.29 184.344H1053.58C1053.94 184.344 1054.34 184.326 1054.79 184.29C1055.24 184.254 1055.65 184.182 1056.03 184.074C1057.11 183.804 1057.96 183.327 1058.57 182.643C1059.2 181.959 1059.64 181.185 1059.89 180.321C1060.16 179.457 1060.3 178.611 1060.3 177.783C1060.3 176.955 1060.16 176.109 1059.89 175.245C1059.64 174.363 1059.2 173.58 1058.57 172.896C1057.96 172.212 1057.11 171.735 1056.03 171.465C1055.65 171.357 1055.24 171.294 1054.79 171.276C1054.34 171.24 1053.94 171.222 1053.58 171.222H1044.29V184.344ZM1086.69 204.81C1083.73 204.81 1081.14 204.171 1078.91 202.893C1076.68 201.615 1074.93 199.842 1073.67 197.574C1072.43 195.306 1071.81 192.696 1071.81 189.744C1071.81 186.558 1072.42 183.795 1073.65 181.455C1074.87 179.097 1076.57 177.27 1078.75 175.974C1080.93 174.678 1083.45 174.03 1086.31 174.03C1089.33 174.03 1091.9 174.741 1094 176.163C1096.13 177.567 1097.7 179.556 1098.73 182.13C1099.75 184.704 1100.14 187.737 1099.89 191.229H1093.44V188.853C1093.42 185.685 1092.86 183.372 1091.76 181.914C1090.66 180.456 1088.94 179.727 1086.58 179.727C1083.91 179.727 1081.93 180.555 1080.64 182.211C1079.34 183.849 1078.69 186.252 1078.69 189.42C1078.69 192.372 1079.34 194.658 1080.64 196.278C1081.93 197.898 1083.82 198.708 1086.31 198.708C1087.91 198.708 1089.29 198.357 1090.44 197.655C1091.61 196.935 1092.51 195.9 1093.14 194.55L1099.57 196.494C1098.45 199.122 1096.72 201.165 1094.38 202.623C1092.06 204.081 1089.49 204.81 1086.69 204.81ZM1076.64 191.229V186.315H1096.7V191.229H1076.64ZM1117.17 204.81C1113.57 204.81 1110.65 204 1108.4 202.38C1106.15 200.76 1104.78 198.483 1104.29 195.549L1110.94 194.523C1111.28 195.963 1112.03 197.097 1113.2 197.925C1114.37 198.753 1115.85 199.167 1117.63 199.167C1119.2 199.167 1120.4 198.861 1121.25 198.249C1122.11 197.619 1122.55 196.764 1122.55 195.684C1122.55 195.018 1122.38 194.487 1122.06 194.091C1121.75 193.677 1121.07 193.281 1120.01 192.903C1118.95 192.525 1117.32 192.048 1115.12 191.472C1112.67 190.824 1110.73 190.131 1109.29 189.393C1107.85 188.637 1106.81 187.746 1106.18 186.72C1105.55 185.694 1105.24 184.452 1105.24 182.994C1105.24 181.176 1105.72 179.592 1106.67 178.242C1107.62 176.892 1108.96 175.857 1110.67 175.137C1112.38 174.399 1114.39 174.03 1116.71 174.03C1118.98 174.03 1120.99 174.381 1122.73 175.083C1124.5 175.785 1125.92 176.784 1127 178.08C1128.08 179.376 1128.75 180.897 1129 182.643L1122.36 183.831C1122.19 182.589 1121.63 181.608 1120.66 180.888C1119.7 180.168 1118.42 179.763 1116.82 179.673C1115.29 179.583 1114.06 179.817 1113.12 180.375C1112.19 180.915 1111.72 181.68 1111.72 182.67C1111.72 183.228 1111.91 183.705 1112.29 184.101C1112.66 184.497 1113.42 184.893 1114.55 185.289C1115.71 185.685 1117.42 186.171 1119.68 186.747C1122.01 187.341 1123.86 188.025 1125.25 188.799C1126.65 189.555 1127.66 190.464 1128.27 191.526C1128.9 192.588 1129.21 193.875 1129.21 195.387C1129.21 198.321 1128.14 200.625 1126 202.299C1123.88 203.973 1120.93 204.81 1117.17 204.81ZM1148.01 204.81C1145.09 204.81 1142.54 204.153 1140.37 202.839C1138.19 201.525 1136.5 199.716 1135.29 197.412C1134.1 195.09 1133.51 192.426 1133.51 189.42C1133.51 186.36 1134.12 183.678 1135.34 181.374C1136.57 179.07 1138.27 177.27 1140.45 175.974C1142.63 174.678 1145.15 174.03 1148.01 174.03C1150.94 174.03 1153.5 174.687 1155.68 176.001C1157.85 177.315 1159.55 179.133 1160.75 181.455C1161.96 183.759 1162.56 186.414 1162.56 189.42C1162.56 192.444 1161.95 195.117 1160.72 197.439C1159.52 199.743 1157.83 201.552 1155.65 202.866C1153.47 204.162 1150.92 204.81 1148.01 204.81ZM1148.01 198.708C1150.6 198.708 1152.53 197.844 1153.79 196.116C1155.05 194.388 1155.68 192.156 1155.68 189.42C1155.68 186.594 1155.04 184.344 1153.76 182.67C1152.48 180.978 1150.56 180.132 1148.01 180.132C1146.26 180.132 1144.82 180.528 1143.69 181.32C1142.57 182.094 1141.74 183.183 1141.2 184.587C1140.66 185.973 1140.39 187.584 1140.39 189.42C1140.39 192.246 1141.03 194.505 1142.31 196.197C1143.61 197.871 1145.51 198.708 1148.01 198.708ZM1179.44 204.837C1177.28 204.837 1175.5 204.477 1174.1 203.757C1172.69 203.037 1171.58 202.119 1170.75 201.003C1169.92 199.887 1169.31 198.699 1168.91 197.439C1168.52 196.179 1168.26 194.991 1168.13 193.875C1168.02 192.741 1167.97 191.823 1167.97 191.121V174.84H1174.56V188.88C1174.56 189.78 1174.62 190.797 1174.75 191.931C1174.87 193.047 1175.16 194.127 1175.61 195.171C1176.08 196.197 1176.76 197.043 1177.66 197.709C1178.58 198.375 1179.81 198.708 1181.36 198.708C1182.19 198.708 1183.01 198.573 1183.82 198.303C1184.63 198.033 1185.36 197.574 1186.01 196.926C1186.67 196.26 1187.2 195.351 1187.6 194.199C1187.99 193.047 1188.19 191.589 1188.19 189.825L1192.05 191.472C1192.05 193.956 1191.57 196.206 1190.6 198.222C1189.64 200.238 1188.23 201.849 1186.36 203.055C1184.48 204.243 1182.18 204.837 1179.44 204.837ZM1188.98 204V194.955H1188.19V174.84H1194.73V204H1188.98ZM1202.31 204V174.84H1208.06V181.941L1207.36 181.023C1207.72 180.051 1208.2 179.169 1208.79 178.377C1209.4 177.567 1210.13 176.901 1210.98 176.379C1211.7 175.893 1212.49 175.515 1213.36 175.245C1214.24 174.957 1215.14 174.786 1216.06 174.732C1216.97 174.66 1217.86 174.696 1218.73 174.84V180.915C1217.86 180.663 1216.87 180.582 1215.73 180.672C1214.62 180.762 1213.61 181.077 1212.71 181.617C1211.81 182.103 1211.07 182.724 1210.49 183.48C1209.94 184.236 1209.52 185.1 1209.25 186.072C1208.98 187.026 1208.85 188.061 1208.85 189.177V204H1202.31ZM1236.02 204.81C1233.01 204.81 1230.45 204.144 1228.32 202.812C1226.2 201.462 1224.57 199.626 1223.43 197.304C1222.32 194.982 1221.75 192.354 1221.73 189.42C1221.75 186.432 1222.34 183.786 1223.49 181.482C1224.66 179.16 1226.31 177.342 1228.46 176.028C1230.6 174.696 1233.15 174.03 1236.1 174.03C1239.41 174.03 1242.21 174.867 1244.49 176.541C1246.8 178.197 1248.3 180.465 1249 183.345L1242.52 185.1C1242.02 183.534 1241.18 182.319 1240.01 181.455C1238.84 180.573 1237.51 180.132 1236.02 180.132C1234.32 180.132 1232.93 180.537 1231.83 181.347C1230.73 182.139 1229.92 183.237 1229.4 184.641C1228.88 186.045 1228.62 187.638 1228.62 189.42C1228.62 192.192 1229.24 194.433 1230.48 196.143C1231.72 197.853 1233.57 198.708 1236.02 198.708C1237.74 198.708 1239.1 198.312 1240.09 197.52C1241.1 196.728 1241.86 195.585 1242.36 194.091L1249 195.576C1248.1 198.546 1246.53 200.832 1244.28 202.434C1242.03 204.018 1239.27 204.81 1236.02 204.81ZM1266.88 204.81C1263.93 204.81 1261.34 204.171 1259.1 202.893C1256.87 201.615 1255.13 199.842 1253.87 197.574C1252.62 195.306 1252 192.696 1252 189.744C1252 186.558 1252.61 183.795 1253.84 181.455C1255.06 179.097 1256.76 177.27 1258.94 175.974C1261.12 174.678 1263.64 174.03 1266.5 174.03C1269.53 174.03 1272.09 174.741 1274.2 176.163C1276.32 177.567 1277.9 179.556 1278.92 182.13C1279.95 184.704 1280.33 187.737 1280.08 191.229H1273.63V188.853C1273.61 185.685 1273.05 183.372 1271.96 181.914C1270.86 180.456 1269.13 179.727 1266.77 179.727C1264.11 179.727 1262.13 180.555 1260.83 182.211C1259.54 183.849 1258.89 186.252 1258.89 189.42C1258.89 192.372 1259.54 194.658 1260.83 196.278C1262.13 197.898 1264.02 198.708 1266.5 198.708C1268.1 198.708 1269.48 198.357 1270.63 197.655C1271.8 196.935 1272.7 195.9 1273.33 194.55L1279.76 196.494C1278.64 199.122 1276.91 201.165 1274.57 202.623C1272.25 204.081 1269.69 204.81 1266.88 204.81ZM1256.84 191.229V186.315H1276.9V191.229H1256.84ZM1297.37 204.81C1293.77 204.81 1290.84 204 1288.59 202.38C1286.34 200.76 1284.97 198.483 1284.49 195.549L1291.13 194.523C1291.47 195.963 1292.23 197.097 1293.4 197.925C1294.57 198.753 1296.04 199.167 1297.83 199.167C1299.39 199.167 1300.6 198.861 1301.44 198.249C1302.31 197.619 1302.74 196.764 1302.74 195.684C1302.74 195.018 1302.58 194.487 1302.25 194.091C1301.95 193.677 1301.26 193.281 1300.2 192.903C1299.14 192.525 1297.51 192.048 1295.31 191.472C1292.87 190.824 1290.92 190.131 1289.48 189.393C1288.04 188.637 1287.01 187.746 1286.38 186.72C1285.75 185.694 1285.43 184.452 1285.43 182.994C1285.43 181.176 1285.91 179.592 1286.86 178.242C1287.82 176.892 1289.15 175.857 1290.86 175.137C1292.57 174.399 1294.59 174.03 1296.91 174.03C1299.18 174.03 1301.18 174.381 1302.93 175.083C1304.69 175.785 1306.11 176.784 1307.19 178.08C1308.27 179.376 1308.94 180.897 1309.19 182.643L1302.55 183.831C1302.39 182.589 1301.82 181.608 1300.85 180.888C1299.9 180.168 1298.62 179.763 1297.02 179.673C1295.49 179.583 1294.25 179.817 1293.32 180.375C1292.38 180.915 1291.91 181.68 1291.91 182.67C1291.91 183.228 1292.1 183.705 1292.48 184.101C1292.86 184.497 1293.61 184.893 1294.75 185.289C1295.9 185.685 1297.61 186.171 1299.88 186.747C1302.2 187.341 1304.05 188.025 1305.44 188.799C1306.84 189.555 1307.85 190.464 1308.46 191.526C1309.09 192.588 1309.41 193.875 1309.41 195.387C1309.41 198.321 1308.34 200.625 1306.2 202.299C1304.07 203.973 1301.13 204.81 1297.37 204.81Z" fill="black"/>
</g>
<defs>
<linearGradient id="paint0_linear_32_199" x1="958.5" y1="0" x2="958.5" y2="743" gradientUnits="userSpaceOnUse">
<stop stop-color="#F0E7F8"/>
<stop offset="1" stop-color="#BEB8F4"/>
</linearGradient>
<clipPath id="clip0_32_199">
<rect width="1921" height="743" fill="white" transform="translate(-2)"/>
</clipPath>
</defs>
</svg>
